M48
METRIC,LZ,000.000
;FILE_FORMAT=3:3
;TYPE=PLATED
;Layer: PTH_Through
;EasyEDA v6.5.54, 2026-06-08 19:45:44
;82e182372f40471f8d9036cec7ceee87,5110d384c6e14df295734490401b8a32,10
;Gerber Generator version 0.2
;Holesize 1 = 0.400 mm
T01C0.400
;Holesize 2 = 0.701 mm
T02C0.701
;Holesize 3 = 0.800 mm
T03C0.800
;Holesize 4 = 0.900 mm
T04C0.900
;Holesize 5 = 0.901 mm
T05C0.901
;Holesize 6 = 1.000 mm
T06C1.000
;Holesize 7 = 1.021 mm
T07C1.021
;Holesize 8 = 1.200 mm
T08C1.200
;Holesize 9 = 1.400 mm
T09C1.400
;Holesize 10 = 1.524 mm
T10C1.524
;Holesize 11 = 1.701 mm
T11C1.701
%
G05
G90
T01
X059055Y-066548
T02
X113538Y-025146
X113538Y-023876
X113538Y-022606
X113665Y-053213
X113665Y-051943
X113665Y-050673
T03
X030115Y-032893
X032115Y-032893
X068977Y-030226
X070977Y-030226
X032258Y-022098
T04
X037719Y-056388
X045339Y-056388
X096139Y-020320
X103759Y-020320
X103759Y-023876
X103759Y-031496
X103759Y-049911
X103759Y-057531
X096139Y-046355
X103759Y-046355
X096520Y-078613
X104140Y-078613
X051181Y-079502
X051181Y-087122
X041402Y-079502
X041402Y-087122
X031750Y-079502
X031750Y-087122
T05
X051181Y-092583
X051181Y-095123
X041402Y-092583
X041402Y-095123
X031750Y-092583
X031750Y-095123
X104648Y-089535
X107188Y-089535
X109728Y-089535
X112268Y-089535
T06
X012837Y-088519
X020437Y-088519
X115062Y-010636
X115062Y-019336
X115189Y-033115
X115189Y-041815
X013462Y-044704
X016002Y-044704
X018542Y-044704
X021082Y-044704
X023622Y-044704
X026162Y-044704
X028702Y-044704
X031242Y-044704
X033782Y-044704
X036322Y-044704
X038862Y-044704
X041402Y-044704
X043942Y-044704
X046482Y-044704
X049022Y-044704
X013462Y-069723
X016002Y-069723
X018542Y-069723
X021082Y-069723
X023622Y-069723
X026162Y-069723
X028702Y-069723
X031242Y-069723
X033782Y-069723
X036322Y-069723
X038862Y-069723
X041402Y-069723
X043942Y-069723
X046482Y-069723
X049022Y-069723
X043077Y-025273
X046077Y-025273
T07
X133731Y-090424
X136271Y-090424
X138811Y-090424
T08
X061012Y-089825
X067512Y-089825
X061012Y-094325
X067512Y-094325
X072823Y-089825
X079323Y-089825
X072823Y-094325
X079323Y-094325
X085396Y-089825
X091896Y-089825
X085396Y-094325
X091896Y-094325
T09
X014351Y-017820
X014351Y-022820
X149733Y-014692
X149733Y-009692
X149733Y-038060
X149733Y-033060
T10
X122144Y-019292
X128143Y-005092
X134143Y-007092
X122143Y-007092
X134142Y-019292
X122144Y-043041
X128143Y-028841
X134143Y-030841
X122143Y-030841
X134142Y-043041
T11
X037465Y-038100
X052705Y-038100
M30
