G04 Layer: TopSilkscreenLayer*
G04 EasyEDA v6.5.54, 2026-06-08 19:45:44*
G04 82e182372f40471f8d9036cec7ceee87,5110d384c6e14df295734490401b8a32,10*
G04 Gerber Generator version 0.2*
G04 Scale: 100 percent, Rotated: No, Reflected: No *
G04 Dimensions in millimeters *
G04 leading zeros omitted , absolute positions ,4 integer and 5 decimal *
%FSLAX45Y45*%
%MOMM*%

%ADD10C,0.2032*%
%ADD11C,0.1524*%
%ADD12C,0.2540*%
%ADD13C,0.3000*%
%ADD14C,0.1500*%
%ADD15C,0.0135*%

%LPD*%
D10*
X912368Y-1723389D02*
G01*
X912368Y-1846071D01*
X850900Y-1784604D02*
G01*
X973581Y-1784604D01*
X907795Y-2209800D02*
G01*
X907795Y-2332481D01*
X15550895Y-914400D02*
G01*
X15550895Y-1037081D01*
X15550895Y-3225800D02*
G01*
X15550895Y-3348481D01*
X15490190Y-3837431D02*
G01*
X15612872Y-3837431D01*
X15551404Y-3898900D02*
G01*
X15551404Y-3776218D01*
X15490190Y-1462531D02*
G01*
X15612872Y-1462531D01*
X15551404Y-1524000D02*
G01*
X15551404Y-1401318D01*
X1510284Y-5410200D02*
G01*
X1367028Y-5410200D01*
X1510284Y-5410200D02*
G01*
X1510284Y-5498845D01*
X1441957Y-5410200D02*
G01*
X1441957Y-5464810D01*
X1367028Y-5410200D02*
G01*
X1367028Y-5498845D01*
X1489710Y-5639307D02*
G01*
X1503426Y-5625592D01*
X1510284Y-5605271D01*
X1510284Y-5577839D01*
X1503426Y-5557520D01*
X1489710Y-5543804D01*
X1476247Y-5543804D01*
X1462531Y-5550662D01*
X1455673Y-5557520D01*
X1448815Y-5570981D01*
X1435354Y-5612129D01*
X1428495Y-5625592D01*
X1421637Y-5632450D01*
X1407921Y-5639307D01*
X1387602Y-5639307D01*
X1373886Y-5625592D01*
X1367028Y-5605271D01*
X1367028Y-5577839D01*
X1373886Y-5557520D01*
X1387602Y-5543804D01*
X1510284Y-5684265D02*
G01*
X1367028Y-5684265D01*
X1510284Y-5684265D02*
G01*
X1510284Y-5745734D01*
X1503426Y-5766054D01*
X1496568Y-5772912D01*
X1483105Y-5779770D01*
X1462531Y-5779770D01*
X1448815Y-5772912D01*
X1441957Y-5766054D01*
X1435354Y-5745734D01*
X1435354Y-5684265D01*
X1510284Y-5838444D02*
G01*
X1510284Y-5913373D01*
X1455673Y-5872479D01*
X1455673Y-5892800D01*
X1448815Y-5906515D01*
X1441957Y-5913373D01*
X1421637Y-5920231D01*
X1407921Y-5920231D01*
X1387602Y-5913373D01*
X1373886Y-5899657D01*
X1367028Y-5879337D01*
X1367028Y-5858763D01*
X1373886Y-5838444D01*
X1380744Y-5831586D01*
X1394460Y-5824728D01*
X1476247Y-5972047D02*
G01*
X1483105Y-5972047D01*
X1496568Y-5978905D01*
X1503426Y-5985763D01*
X1510284Y-5999226D01*
X1510284Y-6026657D01*
X1503426Y-6040120D01*
X1496568Y-6046978D01*
X1483105Y-6053836D01*
X1469389Y-6053836D01*
X1455673Y-6046978D01*
X1435354Y-6033262D01*
X1367028Y-5965189D01*
X1367028Y-6060694D01*
D11*
X1358900Y-9612884D02*
G01*
X1358900Y-9721850D01*
X1358900Y-9612884D02*
G01*
X1405636Y-9612884D01*
X1421129Y-9617963D01*
X1426463Y-9623297D01*
X1431544Y-9633712D01*
X1431544Y-9644126D01*
X1426463Y-9654539D01*
X1421129Y-9659620D01*
X1405636Y-9664700D01*
X1358900Y-9664700D02*
G01*
X1405636Y-9664700D01*
X1421129Y-9670034D01*
X1426463Y-9675113D01*
X1431544Y-9685528D01*
X1431544Y-9701276D01*
X1426463Y-9711689D01*
X1421129Y-9716770D01*
X1405636Y-9721850D01*
X1358900Y-9721850D01*
X1465834Y-9612884D02*
G01*
X1465834Y-9690862D01*
X1471168Y-9706355D01*
X1481581Y-9716770D01*
X1497076Y-9721850D01*
X1507489Y-9721850D01*
X1522984Y-9716770D01*
X1533397Y-9706355D01*
X1538731Y-9690862D01*
X1538731Y-9612884D01*
X1645665Y-9612884D02*
G01*
X1573021Y-9721850D01*
X1573021Y-9612884D02*
G01*
X1645665Y-9612884D01*
X1573021Y-9721850D02*
G01*
X1645665Y-9721850D01*
X1752600Y-9612884D02*
G01*
X1679955Y-9721850D01*
X1679955Y-9612884D02*
G01*
X1752600Y-9612884D01*
X1679955Y-9721850D02*
G01*
X1752600Y-9721850D01*
X1786889Y-9612884D02*
G01*
X1786889Y-9721850D01*
X1786889Y-9612884D02*
G01*
X1854454Y-9612884D01*
X1786889Y-9664700D02*
G01*
X1828545Y-9664700D01*
X1786889Y-9721850D02*
G01*
X1854454Y-9721850D01*
X1888744Y-9612884D02*
G01*
X1888744Y-9721850D01*
X1888744Y-9612884D02*
G01*
X1935479Y-9612884D01*
X1951227Y-9617963D01*
X1956308Y-9623297D01*
X1961641Y-9633712D01*
X1961641Y-9644126D01*
X1956308Y-9654539D01*
X1951227Y-9659620D01*
X1935479Y-9664700D01*
X1888744Y-9664700D01*
X1925320Y-9664700D02*
G01*
X1961641Y-9721850D01*
X2056132Y-9080500D02*
G01*
X2056132Y-8976360D01*
X2108202Y-9028429D02*
G01*
X2004316Y-9028429D01*
X2971800Y-2877312D02*
G01*
X2982213Y-2871978D01*
X2997708Y-2856484D01*
X2997708Y-2965450D01*
X3063240Y-2856484D02*
G01*
X3047745Y-2861563D01*
X3037331Y-2877312D01*
X3031997Y-2903220D01*
X3031997Y-2918713D01*
X3037331Y-2944876D01*
X3047745Y-2960370D01*
X3063240Y-2965450D01*
X3073654Y-2965450D01*
X3089147Y-2960370D01*
X3099561Y-2944876D01*
X3104895Y-2918713D01*
X3104895Y-2903220D01*
X3099561Y-2877312D01*
X3089147Y-2861563D01*
X3073654Y-2856484D01*
X3063240Y-2856484D01*
X3170174Y-2856484D02*
G01*
X3154679Y-2861563D01*
X3144265Y-2877312D01*
X3139186Y-2903220D01*
X3139186Y-2918713D01*
X3144265Y-2944876D01*
X3154679Y-2960370D01*
X3170174Y-2965450D01*
X3180588Y-2965450D01*
X3196336Y-2960370D01*
X3206750Y-2944876D01*
X3211829Y-2918713D01*
X3211829Y-2903220D01*
X3206750Y-2877312D01*
X3196336Y-2861563D01*
X3180588Y-2856484D01*
X3170174Y-2856484D01*
X3246120Y-2892805D02*
G01*
X3246120Y-2944876D01*
X3251200Y-2960370D01*
X3261613Y-2965450D01*
X3277361Y-2965450D01*
X3287775Y-2960370D01*
X3303270Y-2944876D01*
X3303270Y-2892805D02*
G01*
X3303270Y-2965450D01*
X3337559Y-2856484D02*
G01*
X3337559Y-2965450D01*
X3337559Y-2856484D02*
G01*
X3405124Y-2856484D01*
X3337559Y-2908300D02*
G01*
X3379215Y-2908300D01*
X3125977Y-2691892D02*
G01*
X3120643Y-2681478D01*
X3110229Y-2671063D01*
X3100070Y-2665984D01*
X3079241Y-2665984D01*
X3068827Y-2671063D01*
X3058413Y-2681478D01*
X3053079Y-2691892D01*
X3048000Y-2707639D01*
X3048000Y-2733547D01*
X3053079Y-2749042D01*
X3058413Y-2759455D01*
X3068827Y-2769870D01*
X3079241Y-2774950D01*
X3100070Y-2774950D01*
X3110229Y-2769870D01*
X3120643Y-2759455D01*
X3125977Y-2749042D01*
X3160268Y-2686812D02*
G01*
X3170681Y-2681478D01*
X3186175Y-2665984D01*
X3186175Y-2774950D01*
X6824979Y-2602992D02*
G01*
X6824979Y-2597912D01*
X6830313Y-2587497D01*
X6835393Y-2582163D01*
X6845808Y-2577084D01*
X6866636Y-2577084D01*
X6877050Y-2582163D01*
X6882129Y-2587497D01*
X6887463Y-2597912D01*
X6887463Y-2608326D01*
X6882129Y-2618739D01*
X6871970Y-2634234D01*
X6819900Y-2686050D01*
X6892543Y-2686050D01*
X6932168Y-2602992D02*
G01*
X6932168Y-2597912D01*
X6937247Y-2587497D01*
X6942581Y-2582163D01*
X6952995Y-2577084D01*
X6973570Y-2577084D01*
X6983984Y-2582163D01*
X6989318Y-2587497D01*
X6994397Y-2597912D01*
X6994397Y-2608326D01*
X6989318Y-2618739D01*
X6978904Y-2634234D01*
X6926834Y-2686050D01*
X6999731Y-2686050D01*
X7065009Y-2577084D02*
G01*
X7049515Y-2582163D01*
X7039102Y-2597912D01*
X7034022Y-2623820D01*
X7034022Y-2639313D01*
X7039102Y-2665476D01*
X7049515Y-2680970D01*
X7065009Y-2686050D01*
X7075424Y-2686050D01*
X7091172Y-2680970D01*
X7101586Y-2665476D01*
X7106665Y-2639313D01*
X7106665Y-2623820D01*
X7101586Y-2597912D01*
X7091172Y-2582163D01*
X7075424Y-2577084D01*
X7065009Y-2577084D01*
X7140956Y-2613405D02*
G01*
X7140956Y-2665476D01*
X7146290Y-2680970D01*
X7156450Y-2686050D01*
X7172197Y-2686050D01*
X7182611Y-2680970D01*
X7198106Y-2665476D01*
X7198106Y-2613405D02*
G01*
X7198106Y-2686050D01*
X7232395Y-2577084D02*
G01*
X7232395Y-2686050D01*
X7232395Y-2577084D02*
G01*
X7299959Y-2577084D01*
X7232395Y-2628900D02*
G01*
X7274052Y-2628900D01*
X6974077Y-2425192D02*
G01*
X6968743Y-2414778D01*
X6958329Y-2404363D01*
X6948170Y-2399284D01*
X6927341Y-2399284D01*
X6916927Y-2404363D01*
X6906513Y-2414778D01*
X6901179Y-2425192D01*
X6896100Y-2440939D01*
X6896100Y-2466847D01*
X6901179Y-2482342D01*
X6906513Y-2492755D01*
X6916927Y-2503170D01*
X6927341Y-2508250D01*
X6948170Y-2508250D01*
X6958329Y-2503170D01*
X6968743Y-2492755D01*
X6974077Y-2482342D01*
X7013447Y-2425192D02*
G01*
X7013447Y-2420112D01*
X7018781Y-2409697D01*
X7023861Y-2404363D01*
X7034275Y-2399284D01*
X7055104Y-2399284D01*
X7065518Y-2404363D01*
X7070597Y-2409697D01*
X7075931Y-2420112D01*
X7075931Y-2430526D01*
X7070597Y-2440939D01*
X7060184Y-2456434D01*
X7008368Y-2508250D01*
X7081011Y-2508250D01*
X4216400Y-3398012D02*
G01*
X4226813Y-3392678D01*
X4242308Y-3377184D01*
X4242308Y-3486150D01*
X4276597Y-3377184D02*
G01*
X4276597Y-3486150D01*
X4276597Y-3377184D02*
G01*
X4349495Y-3486150D01*
X4349495Y-3377184D02*
G01*
X4349495Y-3486150D01*
X4446015Y-3377184D02*
G01*
X4394200Y-3377184D01*
X4388865Y-3423920D01*
X4394200Y-3418839D01*
X4409693Y-3413505D01*
X4425188Y-3413505D01*
X4440936Y-3418839D01*
X4451350Y-3429000D01*
X4456429Y-3444747D01*
X4456429Y-3455162D01*
X4451350Y-3470655D01*
X4440936Y-3481070D01*
X4425188Y-3486150D01*
X4409693Y-3486150D01*
X4394200Y-3481070D01*
X4388865Y-3475989D01*
X4383786Y-3465576D01*
X4516627Y-3377184D02*
G01*
X4501134Y-3382263D01*
X4495800Y-3392678D01*
X4495800Y-3403092D01*
X4501134Y-3413505D01*
X4511547Y-3418839D01*
X4532375Y-3423920D01*
X4547870Y-3429000D01*
X4558284Y-3439413D01*
X4563363Y-3449828D01*
X4563363Y-3465576D01*
X4558284Y-3475989D01*
X4552950Y-3481070D01*
X4537456Y-3486150D01*
X4516627Y-3486150D01*
X4501134Y-3481070D01*
X4495800Y-3475989D01*
X4490720Y-3465576D01*
X4490720Y-3449828D01*
X4495800Y-3439413D01*
X4506213Y-3429000D01*
X4521961Y-3423920D01*
X4542790Y-3418839D01*
X4552950Y-3413505D01*
X4558284Y-3403092D01*
X4558284Y-3392678D01*
X4552950Y-3382263D01*
X4537456Y-3377184D01*
X4516627Y-3377184D01*
X4602988Y-3403092D02*
G01*
X4602988Y-3398012D01*
X4608068Y-3387597D01*
X4613402Y-3382263D01*
X4623815Y-3377184D01*
X4644390Y-3377184D01*
X4654804Y-3382263D01*
X4660138Y-3387597D01*
X4665218Y-3398012D01*
X4665218Y-3408426D01*
X4660138Y-3418839D01*
X4649724Y-3434334D01*
X4597654Y-3486150D01*
X4670552Y-3486150D01*
X4709922Y-3403092D02*
G01*
X4709922Y-3398012D01*
X4715256Y-3387597D01*
X4720336Y-3382263D01*
X4730750Y-3377184D01*
X4751577Y-3377184D01*
X4761991Y-3382263D01*
X4767072Y-3387597D01*
X4772406Y-3398012D01*
X4772406Y-3408426D01*
X4767072Y-3418839D01*
X4756658Y-3434334D01*
X4704841Y-3486150D01*
X4777486Y-3486150D01*
X4394200Y-3186684D02*
G01*
X4394200Y-3295650D01*
X4394200Y-3186684D02*
G01*
X4430522Y-3186684D01*
X4446270Y-3191763D01*
X4456429Y-3202178D01*
X4461763Y-3212592D01*
X4466843Y-3228339D01*
X4466843Y-3254247D01*
X4461763Y-3269742D01*
X4456429Y-3280155D01*
X4446270Y-3290570D01*
X4430522Y-3295650D01*
X4394200Y-3295650D01*
X4501134Y-3207512D02*
G01*
X4511547Y-3202178D01*
X4527295Y-3186684D01*
X4527295Y-3295650D01*
X11221211Y-1778000D02*
G01*
X11215877Y-1767586D01*
X11200384Y-1752092D01*
X11309350Y-1752092D01*
X11200384Y-1717802D02*
G01*
X11309350Y-1717802D01*
X11200384Y-1717802D02*
G01*
X11309350Y-1644904D01*
X11200384Y-1644904D02*
G01*
X11309350Y-1644904D01*
X11200384Y-1558797D02*
G01*
X11273027Y-1610613D01*
X11273027Y-1532889D01*
X11200384Y-1558797D02*
G01*
X11309350Y-1558797D01*
X11200384Y-1467357D02*
G01*
X11205463Y-1482852D01*
X11221211Y-1493265D01*
X11247120Y-1498600D01*
X11262613Y-1498600D01*
X11288775Y-1493265D01*
X11304270Y-1482852D01*
X11309350Y-1467357D01*
X11309350Y-1456944D01*
X11304270Y-1441450D01*
X11288775Y-1431036D01*
X11262613Y-1425702D01*
X11247120Y-1425702D01*
X11221211Y-1431036D01*
X11205463Y-1441450D01*
X11200384Y-1456944D01*
X11200384Y-1467357D01*
X11200384Y-1360170D02*
G01*
X11205463Y-1375918D01*
X11221211Y-1386331D01*
X11247120Y-1391412D01*
X11262613Y-1391412D01*
X11288775Y-1386331D01*
X11304270Y-1375918D01*
X11309350Y-1360170D01*
X11309350Y-1350010D01*
X11304270Y-1334262D01*
X11288775Y-1323847D01*
X11262613Y-1318768D01*
X11247120Y-1318768D01*
X11221211Y-1323847D01*
X11205463Y-1334262D01*
X11200384Y-1350010D01*
X11200384Y-1360170D01*
X11200384Y-1211579D02*
G01*
X11309350Y-1263650D01*
X11200384Y-1284478D02*
G01*
X11200384Y-1211579D01*
X11009884Y-1600200D02*
G01*
X11118850Y-1600200D01*
X11009884Y-1600200D02*
G01*
X11009884Y-1563878D01*
X11014963Y-1548129D01*
X11025377Y-1537970D01*
X11035791Y-1532636D01*
X11051540Y-1527555D01*
X11077447Y-1527555D01*
X11092941Y-1532636D01*
X11103356Y-1537970D01*
X11113770Y-1548129D01*
X11118850Y-1563878D01*
X11118850Y-1600200D01*
X11035791Y-1487931D02*
G01*
X11030711Y-1487931D01*
X11020297Y-1482852D01*
X11014963Y-1477518D01*
X11009884Y-1467104D01*
X11009884Y-1446529D01*
X11014963Y-1436115D01*
X11020297Y-1430781D01*
X11030711Y-1425702D01*
X11041125Y-1425702D01*
X11051540Y-1430781D01*
X11067034Y-1441195D01*
X11118850Y-1493265D01*
X11118850Y-1420368D01*
X11221211Y-4025900D02*
G01*
X11215877Y-4015486D01*
X11200384Y-3999992D01*
X11309350Y-3999992D01*
X11200384Y-3965702D02*
G01*
X11309350Y-3965702D01*
X11200384Y-3965702D02*
G01*
X11309350Y-3892804D01*
X11200384Y-3892804D02*
G01*
X11309350Y-3892804D01*
X11200384Y-3806697D02*
G01*
X11273027Y-3858513D01*
X11273027Y-3780789D01*
X11200384Y-3806697D02*
G01*
X11309350Y-3806697D01*
X11200384Y-3715257D02*
G01*
X11205463Y-3730752D01*
X11221211Y-3741165D01*
X11247120Y-3746500D01*
X11262613Y-3746500D01*
X11288775Y-3741165D01*
X11304270Y-3730752D01*
X11309350Y-3715257D01*
X11309350Y-3704844D01*
X11304270Y-3689350D01*
X11288775Y-3678936D01*
X11262613Y-3673602D01*
X11247120Y-3673602D01*
X11221211Y-3678936D01*
X11205463Y-3689350D01*
X11200384Y-3704844D01*
X11200384Y-3715257D01*
X11200384Y-3608070D02*
G01*
X11205463Y-3623818D01*
X11221211Y-3634231D01*
X11247120Y-3639312D01*
X11262613Y-3639312D01*
X11288775Y-3634231D01*
X11304270Y-3623818D01*
X11309350Y-3608070D01*
X11309350Y-3597910D01*
X11304270Y-3582162D01*
X11288775Y-3571747D01*
X11262613Y-3566668D01*
X11247120Y-3566668D01*
X11221211Y-3571747D01*
X11205463Y-3582162D01*
X11200384Y-3597910D01*
X11200384Y-3608070D01*
X11200384Y-3459479D02*
G01*
X11309350Y-3511550D01*
X11200384Y-3532378D02*
G01*
X11200384Y-3459479D01*
X11022584Y-3835400D02*
G01*
X11131550Y-3835400D01*
X11022584Y-3835400D02*
G01*
X11022584Y-3799078D01*
X11027663Y-3783329D01*
X11038077Y-3773170D01*
X11048491Y-3767836D01*
X11064240Y-3762755D01*
X11090147Y-3762755D01*
X11105641Y-3767836D01*
X11116056Y-3773170D01*
X11126470Y-3783329D01*
X11131550Y-3799078D01*
X11131550Y-3835400D01*
X11022584Y-3718052D02*
G01*
X11022584Y-3660902D01*
X11064240Y-3691889D01*
X11064240Y-3676395D01*
X11069320Y-3665981D01*
X11074400Y-3660902D01*
X11090147Y-3655568D01*
X11100561Y-3655568D01*
X11116056Y-3660902D01*
X11126470Y-3671315D01*
X11131550Y-3686810D01*
X11131550Y-3702304D01*
X11126470Y-3718052D01*
X11121390Y-3723131D01*
X11110975Y-3728465D01*
X1066787Y-2691384D02*
G01*
X1066787Y-2800350D01*
X1066787Y-2691384D02*
G01*
X1103109Y-2691384D01*
X1118857Y-2696463D01*
X1129017Y-2706878D01*
X1134351Y-2717292D01*
X1139431Y-2733039D01*
X1139431Y-2758947D01*
X1134351Y-2774442D01*
X1129017Y-2784855D01*
X1118857Y-2795270D01*
X1103109Y-2800350D01*
X1066787Y-2800350D01*
X1251699Y-2717292D02*
G01*
X1246619Y-2706878D01*
X1236205Y-2696463D01*
X1225791Y-2691384D01*
X1204963Y-2691384D01*
X1194549Y-2696463D01*
X1184135Y-2706878D01*
X1179055Y-2717292D01*
X1173721Y-2733039D01*
X1173721Y-2758947D01*
X1179055Y-2774442D01*
X1184135Y-2784855D01*
X1194549Y-2795270D01*
X1204963Y-2800350D01*
X1225791Y-2800350D01*
X1236205Y-2795270D01*
X1246619Y-2784855D01*
X1251699Y-2774442D01*
X1285989Y-2836926D02*
G01*
X1379461Y-2836926D01*
X1413751Y-2691384D02*
G01*
X1413751Y-2800350D01*
X1448041Y-2691384D02*
G01*
X1448041Y-2800350D01*
X1448041Y-2691384D02*
G01*
X1520939Y-2800350D01*
X1520939Y-2691384D02*
G01*
X1520939Y-2800350D01*
X1555229Y-2691384D02*
G01*
X1555229Y-2800350D01*
X1555229Y-2691384D02*
G01*
X1601965Y-2691384D01*
X1617459Y-2696463D01*
X1622793Y-2701797D01*
X1627873Y-2712212D01*
X1627873Y-2727705D01*
X1622793Y-2738120D01*
X1617459Y-2743200D01*
X1601965Y-2748534D01*
X1555229Y-2748534D01*
X1662163Y-2691384D02*
G01*
X1662163Y-2769362D01*
X1667497Y-2784855D01*
X1677657Y-2795270D01*
X1693405Y-2800350D01*
X1703819Y-2800350D01*
X1719313Y-2795270D01*
X1729727Y-2784855D01*
X1734807Y-2769362D01*
X1734807Y-2691384D01*
X1805673Y-2691384D02*
G01*
X1805673Y-2800350D01*
X1769097Y-2691384D02*
G01*
X1841995Y-2691384D01*
X14426184Y-1435087D02*
G01*
X14535150Y-1435087D01*
X14535150Y-1435087D02*
G01*
X14535150Y-1372857D01*
X14426184Y-1307325D02*
G01*
X14431263Y-1317739D01*
X14441677Y-1328153D01*
X14452091Y-1333233D01*
X14467840Y-1338567D01*
X14493747Y-1338567D01*
X14509241Y-1333233D01*
X14519656Y-1328153D01*
X14530070Y-1317739D01*
X14535150Y-1307325D01*
X14535150Y-1286497D01*
X14530070Y-1276083D01*
X14519656Y-1265669D01*
X14509241Y-1260589D01*
X14493747Y-1255255D01*
X14467840Y-1255255D01*
X14452091Y-1260589D01*
X14441677Y-1265669D01*
X14431263Y-1276083D01*
X14426184Y-1286497D01*
X14426184Y-1307325D01*
X14426184Y-1179563D02*
G01*
X14535150Y-1220965D01*
X14426184Y-1179563D02*
G01*
X14535150Y-1137907D01*
X14498827Y-1205471D02*
G01*
X14498827Y-1153401D01*
X14426184Y-1103617D02*
G01*
X14535150Y-1103617D01*
X14426184Y-1103617D02*
G01*
X14426184Y-1067295D01*
X14431263Y-1051547D01*
X14441677Y-1041387D01*
X14452091Y-1036053D01*
X14467840Y-1030973D01*
X14493747Y-1030973D01*
X14509241Y-1036053D01*
X14519656Y-1041387D01*
X14530070Y-1051547D01*
X14535150Y-1067295D01*
X14535150Y-1103617D01*
X14447011Y-996683D02*
G01*
X14441677Y-986269D01*
X14426184Y-970521D01*
X14535150Y-970521D01*
X14426184Y-3809987D02*
G01*
X14535150Y-3809987D01*
X14535150Y-3809987D02*
G01*
X14535150Y-3747757D01*
X14426184Y-3682225D02*
G01*
X14431263Y-3692639D01*
X14441677Y-3703053D01*
X14452091Y-3708133D01*
X14467840Y-3713467D01*
X14493747Y-3713467D01*
X14509241Y-3708133D01*
X14519656Y-3703053D01*
X14530070Y-3692639D01*
X14535150Y-3682225D01*
X14535150Y-3661397D01*
X14530070Y-3650983D01*
X14519656Y-3640569D01*
X14509241Y-3635489D01*
X14493747Y-3630155D01*
X14467840Y-3630155D01*
X14452091Y-3635489D01*
X14441677Y-3640569D01*
X14431263Y-3650983D01*
X14426184Y-3661397D01*
X14426184Y-3682225D01*
X14426184Y-3554463D02*
G01*
X14535150Y-3595865D01*
X14426184Y-3554463D02*
G01*
X14535150Y-3512807D01*
X14498827Y-3580371D02*
G01*
X14498827Y-3528301D01*
X14426184Y-3478517D02*
G01*
X14535150Y-3478517D01*
X14426184Y-3478517D02*
G01*
X14426184Y-3442195D01*
X14431263Y-3426447D01*
X14441677Y-3416287D01*
X14452091Y-3410953D01*
X14467840Y-3405873D01*
X14493747Y-3405873D01*
X14509241Y-3410953D01*
X14519656Y-3416287D01*
X14530070Y-3426447D01*
X14535150Y-3442195D01*
X14535150Y-3478517D01*
X14452091Y-3366249D02*
G01*
X14447011Y-3366249D01*
X14436597Y-3361169D01*
X14431263Y-3355835D01*
X14426184Y-3345421D01*
X14426184Y-3324847D01*
X14431263Y-3314433D01*
X14436597Y-3309099D01*
X14447011Y-3304019D01*
X14457425Y-3304019D01*
X14467840Y-3309099D01*
X14483334Y-3319513D01*
X14535150Y-3371583D01*
X14535150Y-3298685D01*
X3149600Y-4712715D02*
G01*
X3149600Y-4603750D01*
X3076956Y-4712715D02*
G01*
X3076956Y-4603750D01*
X3149600Y-4660900D02*
G01*
X3076956Y-4660900D01*
X3042665Y-4691887D02*
G01*
X3032252Y-4697221D01*
X3016504Y-4712715D01*
X3016504Y-4603750D01*
X3149600Y-7214615D02*
G01*
X3149600Y-7105650D01*
X3076956Y-7214615D02*
G01*
X3076956Y-7105650D01*
X3149600Y-7162800D02*
G01*
X3076956Y-7162800D01*
X3037331Y-7188708D02*
G01*
X3037331Y-7193787D01*
X3032252Y-7204202D01*
X3026918Y-7209536D01*
X3016504Y-7214615D01*
X2995929Y-7214615D01*
X2985515Y-7209536D01*
X2980181Y-7204202D01*
X2975102Y-7193787D01*
X2975102Y-7183373D01*
X2980181Y-7172960D01*
X2990595Y-7157465D01*
X3042665Y-7105650D01*
X2969768Y-7105650D01*
X13246100Y-9295384D02*
G01*
X13246100Y-9404350D01*
X13318743Y-9295384D02*
G01*
X13318743Y-9404350D01*
X13246100Y-9347200D02*
G01*
X13318743Y-9347200D01*
X13431011Y-9321292D02*
G01*
X13425931Y-9310878D01*
X13415518Y-9300463D01*
X13405104Y-9295384D01*
X13384275Y-9295384D01*
X13373861Y-9300463D01*
X13363447Y-9310878D01*
X13358368Y-9321292D01*
X13353034Y-9337039D01*
X13353034Y-9362947D01*
X13358368Y-9378442D01*
X13363447Y-9388855D01*
X13373861Y-9399270D01*
X13384275Y-9404350D01*
X13405104Y-9404350D01*
X13415518Y-9399270D01*
X13425931Y-9388855D01*
X13431011Y-9378442D01*
X13465302Y-9357613D02*
G01*
X13558774Y-9357613D01*
X13665961Y-9310878D02*
G01*
X13655547Y-9300463D01*
X13639800Y-9295384D01*
X13619225Y-9295384D01*
X13603477Y-9300463D01*
X13593063Y-9310878D01*
X13593063Y-9321292D01*
X13598397Y-9331705D01*
X13603477Y-9337039D01*
X13613891Y-9342120D01*
X13645134Y-9352534D01*
X13655547Y-9357613D01*
X13660627Y-9362947D01*
X13665961Y-9373362D01*
X13665961Y-9388855D01*
X13655547Y-9399270D01*
X13639800Y-9404350D01*
X13619225Y-9404350D01*
X13603477Y-9399270D01*
X13593063Y-9388855D01*
X13700252Y-9295384D02*
G01*
X13700252Y-9404350D01*
X13700252Y-9295384D02*
G01*
X13746988Y-9295384D01*
X13762481Y-9300463D01*
X13767816Y-9305797D01*
X13772895Y-9316212D01*
X13772895Y-9326626D01*
X13767816Y-9337039D01*
X13762481Y-9342120D01*
X13746988Y-9347200D01*
X13700252Y-9347200D01*
X13736574Y-9347200D02*
G01*
X13772895Y-9404350D01*
X13869670Y-9295384D02*
G01*
X13817600Y-9295384D01*
X13812520Y-9342120D01*
X13817600Y-9337039D01*
X13833093Y-9331705D01*
X13848841Y-9331705D01*
X13864336Y-9337039D01*
X13874750Y-9347200D01*
X13879829Y-9362947D01*
X13879829Y-9373362D01*
X13874750Y-9388855D01*
X13864336Y-9399270D01*
X13848841Y-9404350D01*
X13833093Y-9404350D01*
X13817600Y-9399270D01*
X13812520Y-9394189D01*
X13807186Y-9383776D01*
X13945361Y-9295384D02*
G01*
X13929868Y-9300463D01*
X13919454Y-9316212D01*
X13914120Y-9342120D01*
X13914120Y-9357613D01*
X13919454Y-9383776D01*
X13929868Y-9399270D01*
X13945361Y-9404350D01*
X13955775Y-9404350D01*
X13971270Y-9399270D01*
X13981684Y-9383776D01*
X13987018Y-9357613D01*
X13987018Y-9342120D01*
X13981684Y-9316212D01*
X13971270Y-9300463D01*
X13955775Y-9295384D01*
X13945361Y-9295384D01*
X14021308Y-9316212D02*
G01*
X14031722Y-9310878D01*
X14047216Y-9295384D01*
X14047216Y-9404350D01*
X4927600Y-9689084D02*
G01*
X4927600Y-9798050D01*
X4927600Y-9798050D02*
G01*
X4989829Y-9798050D01*
X5024120Y-9689084D02*
G01*
X5024120Y-9798050D01*
X5024120Y-9689084D02*
G01*
X5091684Y-9689084D01*
X5024120Y-9740900D02*
G01*
X5065775Y-9740900D01*
X5024120Y-9798050D02*
G01*
X5091684Y-9798050D01*
X5125974Y-9689084D02*
G01*
X5125974Y-9798050D01*
X5125974Y-9689084D02*
G01*
X5162550Y-9689084D01*
X5178043Y-9694163D01*
X5188458Y-9704578D01*
X5193538Y-9714992D01*
X5198872Y-9730739D01*
X5198872Y-9756647D01*
X5193538Y-9772142D01*
X5188458Y-9782555D01*
X5178043Y-9792970D01*
X5162550Y-9798050D01*
X5125974Y-9798050D01*
X5233161Y-9709912D02*
G01*
X5243575Y-9704578D01*
X5259070Y-9689084D01*
X5259070Y-9798050D01*
X3937000Y-9676384D02*
G01*
X3937000Y-9785350D01*
X3937000Y-9785350D02*
G01*
X3999229Y-9785350D01*
X4033520Y-9676384D02*
G01*
X4033520Y-9785350D01*
X4033520Y-9676384D02*
G01*
X4101084Y-9676384D01*
X4033520Y-9728200D02*
G01*
X4075175Y-9728200D01*
X4033520Y-9785350D02*
G01*
X4101084Y-9785350D01*
X4135374Y-9676384D02*
G01*
X4135374Y-9785350D01*
X4135374Y-9676384D02*
G01*
X4171950Y-9676384D01*
X4187443Y-9681463D01*
X4197858Y-9691878D01*
X4202938Y-9702292D01*
X4208272Y-9718039D01*
X4208272Y-9743947D01*
X4202938Y-9759442D01*
X4197858Y-9769855D01*
X4187443Y-9780270D01*
X4171950Y-9785350D01*
X4135374Y-9785350D01*
X4247641Y-9702292D02*
G01*
X4247641Y-9697212D01*
X4252975Y-9686797D01*
X4258056Y-9681463D01*
X4268470Y-9676384D01*
X4289297Y-9676384D01*
X4299711Y-9681463D01*
X4304791Y-9686797D01*
X4310125Y-9697212D01*
X4310125Y-9707626D01*
X4304791Y-9718039D01*
X4294377Y-9733534D01*
X4242561Y-9785350D01*
X4315206Y-9785350D01*
X2984500Y-9689084D02*
G01*
X2984500Y-9798050D01*
X2984500Y-9798050D02*
G01*
X3046729Y-9798050D01*
X3081020Y-9689084D02*
G01*
X3081020Y-9798050D01*
X3081020Y-9689084D02*
G01*
X3148584Y-9689084D01*
X3081020Y-9740900D02*
G01*
X3122675Y-9740900D01*
X3081020Y-9798050D02*
G01*
X3148584Y-9798050D01*
X3182874Y-9689084D02*
G01*
X3182874Y-9798050D01*
X3182874Y-9689084D02*
G01*
X3219450Y-9689084D01*
X3234943Y-9694163D01*
X3245358Y-9704578D01*
X3250438Y-9714992D01*
X3255772Y-9730739D01*
X3255772Y-9756647D01*
X3250438Y-9772142D01*
X3245358Y-9782555D01*
X3234943Y-9792970D01*
X3219450Y-9798050D01*
X3182874Y-9798050D01*
X3300475Y-9689084D02*
G01*
X3357625Y-9689084D01*
X3326384Y-9730739D01*
X3341877Y-9730739D01*
X3352291Y-9735820D01*
X3357625Y-9740900D01*
X3362706Y-9756647D01*
X3362706Y-9767062D01*
X3357625Y-9782555D01*
X3347211Y-9792970D01*
X3331463Y-9798050D01*
X3315970Y-9798050D01*
X3300475Y-9792970D01*
X3295141Y-9787889D01*
X3290061Y-9777476D01*
X11761215Y-2171700D02*
G01*
X11652250Y-2171700D01*
X11761215Y-2171700D02*
G01*
X11761215Y-2218436D01*
X11756136Y-2233929D01*
X11750802Y-2239263D01*
X11740388Y-2244344D01*
X11729974Y-2244344D01*
X11719559Y-2239263D01*
X11714479Y-2233929D01*
X11709400Y-2218436D01*
X11709400Y-2171700D02*
G01*
X11709400Y-2218436D01*
X11704065Y-2233929D01*
X11698986Y-2239263D01*
X11688572Y-2244344D01*
X11672824Y-2244344D01*
X11662409Y-2239263D01*
X11657329Y-2233929D01*
X11652250Y-2218436D01*
X11652250Y-2171700D01*
X11735308Y-2356612D02*
G01*
X11745722Y-2351531D01*
X11756136Y-2341118D01*
X11761215Y-2330704D01*
X11761215Y-2309876D01*
X11756136Y-2299462D01*
X11745722Y-2289047D01*
X11735308Y-2283968D01*
X11719559Y-2278634D01*
X11693652Y-2278634D01*
X11678158Y-2283968D01*
X11667743Y-2289047D01*
X11657329Y-2299462D01*
X11652250Y-2309876D01*
X11652250Y-2330704D01*
X11657329Y-2341118D01*
X11667743Y-2351531D01*
X11678158Y-2356612D01*
X11761215Y-2453386D02*
G01*
X11761215Y-2401315D01*
X11714479Y-2396236D01*
X11719559Y-2401315D01*
X11724893Y-2416810D01*
X11724893Y-2432557D01*
X11719559Y-2448052D01*
X11709400Y-2458465D01*
X11693652Y-2463800D01*
X11683238Y-2463800D01*
X11667743Y-2458465D01*
X11657329Y-2448052D01*
X11652250Y-2432557D01*
X11652250Y-2416810D01*
X11657329Y-2401315D01*
X11662409Y-2396236D01*
X11672824Y-2390902D01*
X11761215Y-2549905D02*
G01*
X11688572Y-2498089D01*
X11688572Y-2575813D01*
X11761215Y-2549905D02*
G01*
X11652250Y-2549905D01*
X11761215Y-2683002D02*
G01*
X11652250Y-2630931D01*
X11761215Y-2610104D02*
G01*
X11761215Y-2683002D01*
X11939015Y-2380742D02*
G01*
X11933936Y-2370328D01*
X11923522Y-2359913D01*
X11913108Y-2354579D01*
X11897359Y-2349500D01*
X11871452Y-2349500D01*
X11855958Y-2354579D01*
X11845543Y-2359913D01*
X11835129Y-2370328D01*
X11830050Y-2380742D01*
X11830050Y-2401570D01*
X11835129Y-2411729D01*
X11845543Y-2422144D01*
X11855958Y-2427478D01*
X11871452Y-2432557D01*
X11897359Y-2432557D01*
X11913108Y-2427478D01*
X11923522Y-2422144D01*
X11933936Y-2411729D01*
X11939015Y-2401570D01*
X11939015Y-2380742D01*
X11850624Y-2396236D02*
G01*
X11819636Y-2427478D01*
X11918188Y-2466847D02*
G01*
X11923522Y-2477262D01*
X11939015Y-2493010D01*
X11830050Y-2493010D01*
X11773915Y-4965697D02*
G01*
X11664950Y-4965697D01*
X11773915Y-4965697D02*
G01*
X11773915Y-5012433D01*
X11768836Y-5027927D01*
X11763502Y-5033261D01*
X11753088Y-5038341D01*
X11742674Y-5038341D01*
X11732259Y-5033261D01*
X11727179Y-5027927D01*
X11722100Y-5012433D01*
X11722100Y-4965697D02*
G01*
X11722100Y-5012433D01*
X11716765Y-5027927D01*
X11711686Y-5033261D01*
X11701272Y-5038341D01*
X11685524Y-5038341D01*
X11675109Y-5033261D01*
X11670029Y-5027927D01*
X11664950Y-5012433D01*
X11664950Y-4965697D01*
X11748008Y-5150609D02*
G01*
X11758422Y-5145529D01*
X11768836Y-5135115D01*
X11773915Y-5124701D01*
X11773915Y-5103873D01*
X11768836Y-5093459D01*
X11758422Y-5083045D01*
X11748008Y-5077965D01*
X11732259Y-5072631D01*
X11706352Y-5072631D01*
X11690858Y-5077965D01*
X11680443Y-5083045D01*
X11670029Y-5093459D01*
X11664950Y-5103873D01*
X11664950Y-5124701D01*
X11670029Y-5135115D01*
X11680443Y-5145529D01*
X11690858Y-5150609D01*
X11773915Y-5247383D02*
G01*
X11773915Y-5195313D01*
X11727179Y-5190233D01*
X11732259Y-5195313D01*
X11737593Y-5210807D01*
X11737593Y-5226555D01*
X11732259Y-5242049D01*
X11722100Y-5252463D01*
X11706352Y-5257797D01*
X11695938Y-5257797D01*
X11680443Y-5252463D01*
X11670029Y-5242049D01*
X11664950Y-5226555D01*
X11664950Y-5210807D01*
X11670029Y-5195313D01*
X11675109Y-5190233D01*
X11685524Y-5184899D01*
X11773915Y-5343903D02*
G01*
X11701272Y-5292087D01*
X11701272Y-5369811D01*
X11773915Y-5343903D02*
G01*
X11664950Y-5343903D01*
X11773915Y-5476999D02*
G01*
X11664950Y-5424929D01*
X11773915Y-5404101D02*
G01*
X11773915Y-5476999D01*
X11951715Y-5162042D02*
G01*
X11946636Y-5151628D01*
X11936222Y-5141213D01*
X11925808Y-5135879D01*
X11910059Y-5130800D01*
X11884152Y-5130800D01*
X11868658Y-5135879D01*
X11858243Y-5141213D01*
X11847829Y-5151628D01*
X11842750Y-5162042D01*
X11842750Y-5182870D01*
X11847829Y-5193029D01*
X11858243Y-5203444D01*
X11868658Y-5208778D01*
X11884152Y-5213857D01*
X11910059Y-5213857D01*
X11925808Y-5208778D01*
X11936222Y-5203444D01*
X11946636Y-5193029D01*
X11951715Y-5182870D01*
X11951715Y-5162042D01*
X11863324Y-5177536D02*
G01*
X11832336Y-5208778D01*
X11925808Y-5253481D02*
G01*
X11930888Y-5253481D01*
X11941302Y-5258562D01*
X11946636Y-5263895D01*
X11951715Y-5274310D01*
X11951715Y-5294884D01*
X11946636Y-5305297D01*
X11941302Y-5310631D01*
X11930888Y-5315712D01*
X11920474Y-5315712D01*
X11910059Y-5310631D01*
X11894565Y-5300218D01*
X11842750Y-5248147D01*
X11842750Y-5321045D01*
X4038600Y-5417312D02*
G01*
X4049013Y-5411978D01*
X4064508Y-5396484D01*
X4064508Y-5505450D01*
X4130040Y-5396484D02*
G01*
X4114545Y-5401563D01*
X4104131Y-5417312D01*
X4098797Y-5443220D01*
X4098797Y-5458713D01*
X4104131Y-5484876D01*
X4114545Y-5500370D01*
X4130040Y-5505450D01*
X4140454Y-5505450D01*
X4155947Y-5500370D01*
X4166361Y-5484876D01*
X4171695Y-5458713D01*
X4171695Y-5443220D01*
X4166361Y-5417312D01*
X4155947Y-5401563D01*
X4140454Y-5396484D01*
X4130040Y-5396484D01*
X4205986Y-5396484D02*
G01*
X4205986Y-5505450D01*
X4257802Y-5432805D02*
G01*
X4205986Y-5484876D01*
X4226559Y-5464047D02*
G01*
X4263136Y-5505450D01*
X4076700Y-5244084D02*
G01*
X4076700Y-5353050D01*
X4076700Y-5244084D02*
G01*
X4123436Y-5244084D01*
X4138929Y-5249163D01*
X4144263Y-5254497D01*
X4149343Y-5264912D01*
X4149343Y-5275326D01*
X4144263Y-5285739D01*
X4138929Y-5290820D01*
X4123436Y-5295900D01*
X4076700Y-5295900D01*
X4113022Y-5295900D02*
G01*
X4149343Y-5353050D01*
X4183634Y-5264912D02*
G01*
X4194047Y-5259578D01*
X4209795Y-5244084D01*
X4209795Y-5353050D01*
X9918700Y-1810512D02*
G01*
X9929113Y-1805178D01*
X9944608Y-1789684D01*
X9944608Y-1898650D01*
X9978897Y-1789684D02*
G01*
X9978897Y-1898650D01*
X10030968Y-1826005D02*
G01*
X9978897Y-1878076D01*
X9999725Y-1857247D02*
G01*
X10036047Y-1898650D01*
X9880600Y-1599184D02*
G01*
X9880600Y-1708150D01*
X9880600Y-1599184D02*
G01*
X9927336Y-1599184D01*
X9942829Y-1604263D01*
X9948163Y-1609597D01*
X9953243Y-1620012D01*
X9953243Y-1630426D01*
X9948163Y-1640839D01*
X9942829Y-1645920D01*
X9927336Y-1651000D01*
X9880600Y-1651000D01*
X9916922Y-1651000D02*
G01*
X9953243Y-1708150D01*
X9992868Y-1625092D02*
G01*
X9992868Y-1620012D01*
X9997947Y-1609597D01*
X10003281Y-1604263D01*
X10013695Y-1599184D01*
X10034270Y-1599184D01*
X10044684Y-1604263D01*
X10050018Y-1609597D01*
X10055097Y-1620012D01*
X10055097Y-1630426D01*
X10050018Y-1640839D01*
X10039604Y-1656334D01*
X9987534Y-1708150D01*
X10060431Y-1708150D01*
X10597388Y-2616200D02*
G01*
X10602722Y-2626613D01*
X10618215Y-2642107D01*
X10509250Y-2642107D01*
X10618215Y-2707639D02*
G01*
X10613136Y-2692145D01*
X10597388Y-2681731D01*
X10571479Y-2676397D01*
X10555986Y-2676397D01*
X10529824Y-2681731D01*
X10514329Y-2692145D01*
X10509250Y-2707639D01*
X10509250Y-2718054D01*
X10514329Y-2733547D01*
X10529824Y-2743962D01*
X10555986Y-2749295D01*
X10571479Y-2749295D01*
X10597388Y-2743962D01*
X10613136Y-2733547D01*
X10618215Y-2718054D01*
X10618215Y-2707639D01*
X10618215Y-2783586D02*
G01*
X10509250Y-2783586D01*
X10581893Y-2835402D02*
G01*
X10529824Y-2783586D01*
X10550652Y-2804160D02*
G01*
X10509250Y-2840736D01*
X10783315Y-2628900D02*
G01*
X10674350Y-2628900D01*
X10783315Y-2628900D02*
G01*
X10783315Y-2675636D01*
X10778236Y-2691129D01*
X10772902Y-2696463D01*
X10762488Y-2701544D01*
X10752074Y-2701544D01*
X10741659Y-2696463D01*
X10736579Y-2691129D01*
X10731500Y-2675636D01*
X10731500Y-2628900D01*
X10731500Y-2665221D02*
G01*
X10674350Y-2701544D01*
X10783315Y-2746247D02*
G01*
X10783315Y-2803397D01*
X10741659Y-2772410D01*
X10741659Y-2787904D01*
X10736579Y-2798318D01*
X10731500Y-2803397D01*
X10715752Y-2808731D01*
X10705338Y-2808731D01*
X10689843Y-2803397D01*
X10679429Y-2792984D01*
X10674350Y-2777489D01*
X10674350Y-2761995D01*
X10679429Y-2746247D01*
X10684509Y-2741168D01*
X10694924Y-2735834D01*
X10597388Y-5283200D02*
G01*
X10602722Y-5293613D01*
X10618215Y-5309107D01*
X10509250Y-5309107D01*
X10618215Y-5374639D02*
G01*
X10613136Y-5359145D01*
X10597388Y-5348731D01*
X10571479Y-5343397D01*
X10555986Y-5343397D01*
X10529824Y-5348731D01*
X10514329Y-5359145D01*
X10509250Y-5374639D01*
X10509250Y-5385054D01*
X10514329Y-5400547D01*
X10529824Y-5410962D01*
X10555986Y-5416295D01*
X10571479Y-5416295D01*
X10597388Y-5410962D01*
X10613136Y-5400547D01*
X10618215Y-5385054D01*
X10618215Y-5374639D01*
X10618215Y-5450586D02*
G01*
X10509250Y-5450586D01*
X10581893Y-5502402D02*
G01*
X10529824Y-5450586D01*
X10550652Y-5471160D02*
G01*
X10509250Y-5507736D01*
X10796015Y-5308600D02*
G01*
X10687050Y-5308600D01*
X10796015Y-5308600D02*
G01*
X10796015Y-5355336D01*
X10790936Y-5370829D01*
X10785602Y-5376163D01*
X10775188Y-5381244D01*
X10764774Y-5381244D01*
X10754359Y-5376163D01*
X10749279Y-5370829D01*
X10744200Y-5355336D01*
X10744200Y-5308600D01*
X10744200Y-5344921D02*
G01*
X10687050Y-5381244D01*
X10796015Y-5467604D02*
G01*
X10723372Y-5415534D01*
X10723372Y-5493512D01*
X10796015Y-5467604D02*
G01*
X10687050Y-5467604D01*
X9944100Y-4401312D02*
G01*
X9954513Y-4395978D01*
X9970008Y-4380484D01*
X9970008Y-4489450D01*
X10004297Y-4380484D02*
G01*
X10004297Y-4489450D01*
X10056368Y-4416805D02*
G01*
X10004297Y-4468876D01*
X10025125Y-4448047D02*
G01*
X10061447Y-4489450D01*
X9906000Y-4215384D02*
G01*
X9906000Y-4324350D01*
X9906000Y-4215384D02*
G01*
X9952736Y-4215384D01*
X9968229Y-4220463D01*
X9973563Y-4225797D01*
X9978643Y-4236212D01*
X9978643Y-4246626D01*
X9973563Y-4257039D01*
X9968229Y-4262120D01*
X9952736Y-4267200D01*
X9906000Y-4267200D01*
X9942322Y-4267200D02*
G01*
X9978643Y-4324350D01*
X10075418Y-4215384D02*
G01*
X10023347Y-4215384D01*
X10018268Y-4262120D01*
X10023347Y-4257039D01*
X10039095Y-4251705D01*
X10054590Y-4251705D01*
X10070084Y-4257039D01*
X10080497Y-4267200D01*
X10085831Y-4282947D01*
X10085831Y-4293362D01*
X10080497Y-4308855D01*
X10070084Y-4319270D01*
X10054590Y-4324350D01*
X10039095Y-4324350D01*
X10023347Y-4319270D01*
X10018268Y-4314189D01*
X10012934Y-4303776D01*
X9918700Y-7627112D02*
G01*
X9929113Y-7621778D01*
X9944608Y-7606284D01*
X9944608Y-7715250D01*
X10010140Y-7606284D02*
G01*
X9994645Y-7611363D01*
X9984231Y-7627112D01*
X9978897Y-7653020D01*
X9978897Y-7668513D01*
X9984231Y-7694676D01*
X9994645Y-7710170D01*
X10010140Y-7715250D01*
X10020554Y-7715250D01*
X10036047Y-7710170D01*
X10046461Y-7694676D01*
X10051795Y-7668513D01*
X10051795Y-7653020D01*
X10046461Y-7627112D01*
X10036047Y-7611363D01*
X10020554Y-7606284D01*
X10010140Y-7606284D01*
X10086086Y-7606284D02*
G01*
X10086086Y-7715250D01*
X10137902Y-7642605D02*
G01*
X10086086Y-7694676D01*
X10106659Y-7673847D02*
G01*
X10143236Y-7715250D01*
X9931400Y-7441184D02*
G01*
X9931400Y-7550150D01*
X9931400Y-7441184D02*
G01*
X9978136Y-7441184D01*
X9993629Y-7446263D01*
X9998963Y-7451597D01*
X10004043Y-7462012D01*
X10004043Y-7472426D01*
X9998963Y-7482839D01*
X9993629Y-7487920D01*
X9978136Y-7493000D01*
X9931400Y-7493000D01*
X9967722Y-7493000D02*
G01*
X10004043Y-7550150D01*
X10100818Y-7456678D02*
G01*
X10095484Y-7446263D01*
X10079990Y-7441184D01*
X10069575Y-7441184D01*
X10054081Y-7446263D01*
X10043668Y-7462012D01*
X10038334Y-7487920D01*
X10038334Y-7513828D01*
X10043668Y-7534655D01*
X10054081Y-7545070D01*
X10069575Y-7550150D01*
X10074909Y-7550150D01*
X10090404Y-7545070D01*
X10100818Y-7534655D01*
X10105897Y-7519162D01*
X10105897Y-7513828D01*
X10100818Y-7498334D01*
X10090404Y-7487920D01*
X10074909Y-7482839D01*
X10069575Y-7482839D01*
X10054081Y-7487920D01*
X10043668Y-7498334D01*
X10038334Y-7513828D01*
X5334508Y-8196579D02*
G01*
X5339588Y-8196579D01*
X5350002Y-8201913D01*
X5355336Y-8206994D01*
X5360415Y-8217408D01*
X5360415Y-8238236D01*
X5355336Y-8248650D01*
X5350002Y-8253729D01*
X5339588Y-8259063D01*
X5329174Y-8259063D01*
X5318759Y-8253729D01*
X5303265Y-8243570D01*
X5251450Y-8191500D01*
X5251450Y-8264144D01*
X5334508Y-8303768D02*
G01*
X5339588Y-8303768D01*
X5350002Y-8308847D01*
X5355336Y-8314181D01*
X5360415Y-8324595D01*
X5360415Y-8345170D01*
X5355336Y-8355584D01*
X5350002Y-8360918D01*
X5339588Y-8365997D01*
X5329174Y-8365997D01*
X5318759Y-8360918D01*
X5303265Y-8350504D01*
X5251450Y-8298434D01*
X5251450Y-8371331D01*
X5360415Y-8436610D02*
G01*
X5355336Y-8421115D01*
X5339588Y-8410702D01*
X5313679Y-8405621D01*
X5298186Y-8405621D01*
X5272024Y-8410702D01*
X5256529Y-8421115D01*
X5251450Y-8436610D01*
X5251450Y-8447024D01*
X5256529Y-8462771D01*
X5272024Y-8473186D01*
X5298186Y-8478265D01*
X5313679Y-8478265D01*
X5339588Y-8473186D01*
X5355336Y-8462771D01*
X5360415Y-8447024D01*
X5360415Y-8436610D01*
X5538215Y-8229600D02*
G01*
X5429250Y-8229600D01*
X5538215Y-8229600D02*
G01*
X5538215Y-8276336D01*
X5533136Y-8291829D01*
X5527802Y-8297163D01*
X5517388Y-8302244D01*
X5506974Y-8302244D01*
X5496559Y-8297163D01*
X5491479Y-8291829D01*
X5486400Y-8276336D01*
X5486400Y-8229600D01*
X5486400Y-8265921D02*
G01*
X5429250Y-8302244D01*
X5538215Y-8409431D02*
G01*
X5429250Y-8357362D01*
X5538215Y-8336534D02*
G01*
X5538215Y-8409431D01*
X4369308Y-8183879D02*
G01*
X4374388Y-8183879D01*
X4384802Y-8189213D01*
X4390136Y-8194294D01*
X4395215Y-8204708D01*
X4395215Y-8225536D01*
X4390136Y-8235950D01*
X4384802Y-8241029D01*
X4374388Y-8246363D01*
X4363974Y-8246363D01*
X4353559Y-8241029D01*
X4338065Y-8230870D01*
X4286250Y-8178800D01*
X4286250Y-8251444D01*
X4369308Y-8291068D02*
G01*
X4374388Y-8291068D01*
X4384802Y-8296147D01*
X4390136Y-8301481D01*
X4395215Y-8311895D01*
X4395215Y-8332470D01*
X4390136Y-8342884D01*
X4384802Y-8348218D01*
X4374388Y-8353297D01*
X4363974Y-8353297D01*
X4353559Y-8348218D01*
X4338065Y-8337804D01*
X4286250Y-8285734D01*
X4286250Y-8358631D01*
X4395215Y-8423910D02*
G01*
X4390136Y-8408415D01*
X4374388Y-8398002D01*
X4348479Y-8392921D01*
X4332986Y-8392921D01*
X4306824Y-8398002D01*
X4291329Y-8408415D01*
X4286250Y-8423910D01*
X4286250Y-8434324D01*
X4291329Y-8450071D01*
X4306824Y-8460486D01*
X4332986Y-8465565D01*
X4348479Y-8465565D01*
X4374388Y-8460486D01*
X4390136Y-8450071D01*
X4395215Y-8434324D01*
X4395215Y-8423910D01*
X4560315Y-8229600D02*
G01*
X4451350Y-8229600D01*
X4560315Y-8229600D02*
G01*
X4560315Y-8276336D01*
X4555236Y-8291829D01*
X4549902Y-8297163D01*
X4539488Y-8302244D01*
X4529074Y-8302244D01*
X4518659Y-8297163D01*
X4513579Y-8291829D01*
X4508500Y-8276336D01*
X4508500Y-8229600D01*
X4508500Y-8265921D02*
G01*
X4451350Y-8302244D01*
X4560315Y-8362695D02*
G01*
X4555236Y-8346947D01*
X4544822Y-8341868D01*
X4534408Y-8341868D01*
X4523993Y-8346947D01*
X4518659Y-8357362D01*
X4513579Y-8378189D01*
X4508500Y-8393684D01*
X4498086Y-8404097D01*
X4487672Y-8409431D01*
X4471924Y-8409431D01*
X4461509Y-8404097D01*
X4456429Y-8399018D01*
X4451350Y-8383270D01*
X4451350Y-8362695D01*
X4456429Y-8346947D01*
X4461509Y-8341868D01*
X4471924Y-8336534D01*
X4487672Y-8336534D01*
X4498086Y-8341868D01*
X4508500Y-8352281D01*
X4513579Y-8367776D01*
X4518659Y-8388604D01*
X4523993Y-8399018D01*
X4534408Y-8404097D01*
X4544822Y-8404097D01*
X4555236Y-8399018D01*
X4560315Y-8383270D01*
X4560315Y-8362695D01*
X3404108Y-8183879D02*
G01*
X3409188Y-8183879D01*
X3419602Y-8189213D01*
X3424936Y-8194294D01*
X3430015Y-8204708D01*
X3430015Y-8225536D01*
X3424936Y-8235950D01*
X3419602Y-8241029D01*
X3409188Y-8246363D01*
X3398774Y-8246363D01*
X3388359Y-8241029D01*
X3372865Y-8230870D01*
X3321050Y-8178800D01*
X3321050Y-8251444D01*
X3404108Y-8291068D02*
G01*
X3409188Y-8291068D01*
X3419602Y-8296147D01*
X3424936Y-8301481D01*
X3430015Y-8311895D01*
X3430015Y-8332470D01*
X3424936Y-8342884D01*
X3419602Y-8348218D01*
X3409188Y-8353297D01*
X3398774Y-8353297D01*
X3388359Y-8348218D01*
X3372865Y-8337804D01*
X3321050Y-8285734D01*
X3321050Y-8358631D01*
X3430015Y-8423910D02*
G01*
X3424936Y-8408415D01*
X3409188Y-8398002D01*
X3383279Y-8392921D01*
X3367786Y-8392921D01*
X3341624Y-8398002D01*
X3326129Y-8408415D01*
X3321050Y-8423910D01*
X3321050Y-8434324D01*
X3326129Y-8450071D01*
X3341624Y-8460486D01*
X3367786Y-8465565D01*
X3383279Y-8465565D01*
X3409188Y-8460486D01*
X3424936Y-8450071D01*
X3430015Y-8434324D01*
X3430015Y-8423910D01*
X3607815Y-8229600D02*
G01*
X3498850Y-8229600D01*
X3607815Y-8229600D02*
G01*
X3607815Y-8276336D01*
X3602736Y-8291829D01*
X3597402Y-8297163D01*
X3586988Y-8302244D01*
X3576574Y-8302244D01*
X3566159Y-8297163D01*
X3561079Y-8291829D01*
X3556000Y-8276336D01*
X3556000Y-8229600D01*
X3556000Y-8265921D02*
G01*
X3498850Y-8302244D01*
X3571493Y-8404097D02*
G01*
X3556000Y-8399018D01*
X3545586Y-8388604D01*
X3540252Y-8373110D01*
X3540252Y-8367776D01*
X3545586Y-8352281D01*
X3556000Y-8341868D01*
X3571493Y-8336534D01*
X3576574Y-8336534D01*
X3592322Y-8341868D01*
X3602736Y-8352281D01*
X3607815Y-8367776D01*
X3607815Y-8373110D01*
X3602736Y-8388604D01*
X3592322Y-8399018D01*
X3571493Y-8404097D01*
X3545586Y-8404097D01*
X3519424Y-8399018D01*
X3503929Y-8388604D01*
X3498850Y-8373110D01*
X3498850Y-8362695D01*
X3503929Y-8346947D01*
X3514343Y-8341868D01*
X13780516Y-990600D02*
G01*
X13671550Y-990600D01*
X13780516Y-990600D02*
G01*
X13780516Y-1037336D01*
X13775436Y-1052829D01*
X13770102Y-1058163D01*
X13759688Y-1063244D01*
X13749274Y-1063244D01*
X13738859Y-1058163D01*
X13733779Y-1052829D01*
X13728700Y-1037336D01*
X13728700Y-990600D01*
X13728700Y-1026921D02*
G01*
X13671550Y-1063244D01*
X13780516Y-1097534D02*
G01*
X13671550Y-1097534D01*
X13780516Y-1097534D02*
G01*
X13780516Y-1165097D01*
X13728700Y-1097534D02*
G01*
X13728700Y-1139189D01*
X13671550Y-1097534D02*
G01*
X13671550Y-1165097D01*
X13780516Y-1199387D02*
G01*
X13671550Y-1199387D01*
X13671550Y-1199387D02*
G01*
X13671550Y-1261871D01*
X13780516Y-1337563D02*
G01*
X13671550Y-1296162D01*
X13780516Y-1337563D02*
G01*
X13671550Y-1379220D01*
X13707872Y-1311655D02*
G01*
X13707872Y-1363726D01*
X13780516Y-1413510D02*
G01*
X13728700Y-1455165D01*
X13671550Y-1455165D01*
X13780516Y-1496568D02*
G01*
X13728700Y-1455165D01*
X13759688Y-1530857D02*
G01*
X13765022Y-1541271D01*
X13780516Y-1557020D01*
X13671550Y-1557020D01*
X13818616Y-3390900D02*
G01*
X13709650Y-3390900D01*
X13818616Y-3390900D02*
G01*
X13818616Y-3437636D01*
X13813536Y-3453129D01*
X13808202Y-3458463D01*
X13797788Y-3463544D01*
X13787374Y-3463544D01*
X13776959Y-3458463D01*
X13771879Y-3453129D01*
X13766800Y-3437636D01*
X13766800Y-3390900D01*
X13766800Y-3427221D02*
G01*
X13709650Y-3463544D01*
X13818616Y-3497834D02*
G01*
X13709650Y-3497834D01*
X13818616Y-3497834D02*
G01*
X13818616Y-3565397D01*
X13766800Y-3497834D02*
G01*
X13766800Y-3539489D01*
X13709650Y-3497834D02*
G01*
X13709650Y-3565397D01*
X13818616Y-3599687D02*
G01*
X13709650Y-3599687D01*
X13709650Y-3599687D02*
G01*
X13709650Y-3662171D01*
X13818616Y-3737863D02*
G01*
X13709650Y-3696462D01*
X13818616Y-3737863D02*
G01*
X13709650Y-3779520D01*
X13745972Y-3711955D02*
G01*
X13745972Y-3764026D01*
X13818616Y-3813810D02*
G01*
X13766800Y-3855465D01*
X13709650Y-3855465D01*
X13818616Y-3896868D02*
G01*
X13766800Y-3855465D01*
X13792708Y-3936492D02*
G01*
X13797788Y-3936492D01*
X13808202Y-3941571D01*
X13813536Y-3946905D01*
X13818616Y-3957320D01*
X13818616Y-3977894D01*
X13813536Y-3988307D01*
X13808202Y-3993642D01*
X13797788Y-3998721D01*
X13787374Y-3998721D01*
X13776959Y-3993642D01*
X13761466Y-3983228D01*
X13709650Y-3931157D01*
X13709650Y-4004055D01*
X2921000Y-62484D02*
G01*
X2921000Y-171450D01*
X2921000Y-171450D02*
G01*
X2983229Y-171450D01*
X3017520Y-62484D02*
G01*
X3017520Y-171450D01*
X3017520Y-62484D02*
G01*
X3059175Y-171450D01*
X3100831Y-62484D02*
G01*
X3059175Y-171450D01*
X3100831Y-62484D02*
G01*
X3100831Y-171450D01*
X3140202Y-88392D02*
G01*
X3140202Y-83312D01*
X3145536Y-72897D01*
X3150615Y-67563D01*
X3161029Y-62484D01*
X3181858Y-62484D01*
X3192272Y-67563D01*
X3197352Y-72897D01*
X3202686Y-83312D01*
X3202686Y-93726D01*
X3197352Y-104139D01*
X3186938Y-119634D01*
X3135122Y-171450D01*
X3207765Y-171450D01*
X3304540Y-62484D02*
G01*
X3252470Y-62484D01*
X3247390Y-109220D01*
X3252470Y-104139D01*
X3267963Y-98805D01*
X3283711Y-98805D01*
X3299206Y-104139D01*
X3309620Y-114300D01*
X3314700Y-130047D01*
X3314700Y-140462D01*
X3309620Y-155955D01*
X3299206Y-166370D01*
X3283711Y-171450D01*
X3267963Y-171450D01*
X3252470Y-166370D01*
X3247390Y-161289D01*
X3242056Y-150876D01*
X3416554Y-98805D02*
G01*
X3411474Y-114300D01*
X3401059Y-124713D01*
X3385565Y-130047D01*
X3380231Y-130047D01*
X3364738Y-124713D01*
X3354324Y-114300D01*
X3348990Y-98805D01*
X3348990Y-93726D01*
X3354324Y-77978D01*
X3364738Y-67563D01*
X3380231Y-62484D01*
X3385565Y-62484D01*
X3401059Y-67563D01*
X3411474Y-77978D01*
X3416554Y-98805D01*
X3416554Y-124713D01*
X3411474Y-150876D01*
X3401059Y-166370D01*
X3385565Y-171450D01*
X3375152Y-171450D01*
X3359404Y-166370D01*
X3354324Y-155955D01*
X3513327Y-77978D02*
G01*
X3507993Y-67563D01*
X3492500Y-62484D01*
X3482086Y-62484D01*
X3466591Y-67563D01*
X3456177Y-83312D01*
X3450843Y-109220D01*
X3450843Y-135128D01*
X3456177Y-155955D01*
X3466591Y-166370D01*
X3482086Y-171450D01*
X3487420Y-171450D01*
X3502913Y-166370D01*
X3513327Y-155955D01*
X3518408Y-140462D01*
X3518408Y-135128D01*
X3513327Y-119634D01*
X3502913Y-109220D01*
X3487420Y-104139D01*
X3482086Y-104139D01*
X3466591Y-109220D01*
X3456177Y-119634D01*
X3450843Y-135128D01*
X4279887Y-1950212D02*
G01*
X4290301Y-1944878D01*
X4305795Y-1929384D01*
X4305795Y-2038350D01*
X4371327Y-1929384D02*
G01*
X4355833Y-1934463D01*
X4345419Y-1950212D01*
X4340085Y-1976120D01*
X4340085Y-1991613D01*
X4345419Y-2017776D01*
X4355833Y-2033270D01*
X4371327Y-2038350D01*
X4381741Y-2038350D01*
X4397235Y-2033270D01*
X4407649Y-2017776D01*
X4412983Y-1991613D01*
X4412983Y-1976120D01*
X4407649Y-1950212D01*
X4397235Y-1934463D01*
X4381741Y-1929384D01*
X4371327Y-1929384D01*
X4478261Y-1929384D02*
G01*
X4462767Y-1934463D01*
X4452353Y-1950212D01*
X4447273Y-1976120D01*
X4447273Y-1991613D01*
X4452353Y-2017776D01*
X4462767Y-2033270D01*
X4478261Y-2038350D01*
X4488675Y-2038350D01*
X4504423Y-2033270D01*
X4514837Y-2017776D01*
X4519917Y-1991613D01*
X4519917Y-1976120D01*
X4514837Y-1950212D01*
X4504423Y-1934463D01*
X4488675Y-1929384D01*
X4478261Y-1929384D01*
X4554207Y-1965705D02*
G01*
X4554207Y-2017776D01*
X4559287Y-2033270D01*
X4569701Y-2038350D01*
X4585449Y-2038350D01*
X4595863Y-2033270D01*
X4611357Y-2017776D01*
X4611357Y-1965705D02*
G01*
X4611357Y-2038350D01*
X4645647Y-1929384D02*
G01*
X4645647Y-2038350D01*
X4718291Y-1929384D02*
G01*
X4718291Y-2038350D01*
X4645647Y-1981200D02*
G01*
X4718291Y-1981200D01*
X4406900Y-1751584D02*
G01*
X4406900Y-1860550D01*
X4406900Y-1860550D02*
G01*
X4469129Y-1860550D01*
X4503420Y-1772412D02*
G01*
X4513834Y-1767078D01*
X4529581Y-1751584D01*
X4529581Y-1860550D01*
X10579100Y-9396984D02*
G01*
X10579100Y-9505950D01*
X10579100Y-9396984D02*
G01*
X10615422Y-9396984D01*
X10631170Y-9402063D01*
X10641329Y-9412478D01*
X10646663Y-9422892D01*
X10651743Y-9438639D01*
X10651743Y-9464547D01*
X10646663Y-9480042D01*
X10641329Y-9490455D01*
X10631170Y-9500870D01*
X10615422Y-9505950D01*
X10579100Y-9505950D01*
X10686034Y-9396984D02*
G01*
X10686034Y-9505950D01*
X10758931Y-9396984D02*
G01*
X10758931Y-9505950D01*
X10686034Y-9448800D02*
G01*
X10758931Y-9448800D01*
X10829543Y-9396984D02*
G01*
X10829543Y-9505950D01*
X10793222Y-9396984D02*
G01*
X10865865Y-9396984D01*
X10905490Y-9422892D02*
G01*
X10905490Y-9417812D01*
X10910570Y-9407397D01*
X10915650Y-9402063D01*
X10926063Y-9396984D01*
X10946891Y-9396984D01*
X10957306Y-9402063D01*
X10962640Y-9407397D01*
X10967720Y-9417812D01*
X10967720Y-9428226D01*
X10962640Y-9438639D01*
X10952225Y-9454134D01*
X10900156Y-9505950D01*
X10972800Y-9505950D01*
X11012424Y-9422892D02*
G01*
X11012424Y-9417812D01*
X11017504Y-9407397D01*
X11022838Y-9402063D01*
X11033252Y-9396984D01*
X11054079Y-9396984D01*
X11064240Y-9402063D01*
X11069574Y-9407397D01*
X11074654Y-9417812D01*
X11074654Y-9428226D01*
X11069574Y-9438639D01*
X11059159Y-9454134D01*
X11007090Y-9505950D01*
X11079988Y-9505950D01*
X6248400Y-9612884D02*
G01*
X6248400Y-9721850D01*
X6248400Y-9612884D02*
G01*
X6295136Y-9612884D01*
X6310629Y-9617963D01*
X6315963Y-9623297D01*
X6321043Y-9633712D01*
X6321043Y-9644126D01*
X6315963Y-9654539D01*
X6310629Y-9659620D01*
X6295136Y-9664700D01*
X6248400Y-9664700D02*
G01*
X6295136Y-9664700D01*
X6310629Y-9670034D01*
X6315963Y-9675113D01*
X6321043Y-9685528D01*
X6321043Y-9701276D01*
X6315963Y-9711689D01*
X6310629Y-9716770D01*
X6295136Y-9721850D01*
X6248400Y-9721850D01*
X6391909Y-9612884D02*
G01*
X6391909Y-9721850D01*
X6355334Y-9612884D02*
G01*
X6428231Y-9612884D01*
X6462522Y-9612884D02*
G01*
X6462522Y-9721850D01*
X6462522Y-9612884D02*
G01*
X6535165Y-9721850D01*
X6535165Y-9612884D02*
G01*
X6535165Y-9721850D01*
X6569456Y-9633712D02*
G01*
X6579870Y-9628378D01*
X6595363Y-9612884D01*
X6595363Y-9721850D01*
X7429500Y-9612884D02*
G01*
X7429500Y-9721850D01*
X7429500Y-9612884D02*
G01*
X7476236Y-9612884D01*
X7491729Y-9617963D01*
X7497063Y-9623297D01*
X7502143Y-9633712D01*
X7502143Y-9644126D01*
X7497063Y-9654539D01*
X7491729Y-9659620D01*
X7476236Y-9664700D01*
X7429500Y-9664700D02*
G01*
X7476236Y-9664700D01*
X7491729Y-9670034D01*
X7497063Y-9675113D01*
X7502143Y-9685528D01*
X7502143Y-9701276D01*
X7497063Y-9711689D01*
X7491729Y-9716770D01*
X7476236Y-9721850D01*
X7429500Y-9721850D01*
X7573009Y-9612884D02*
G01*
X7573009Y-9721850D01*
X7536434Y-9612884D02*
G01*
X7609331Y-9612884D01*
X7643622Y-9612884D02*
G01*
X7643622Y-9721850D01*
X7643622Y-9612884D02*
G01*
X7716265Y-9721850D01*
X7716265Y-9612884D02*
G01*
X7716265Y-9721850D01*
X7755890Y-9638792D02*
G01*
X7755890Y-9633712D01*
X7760970Y-9623297D01*
X7766050Y-9617963D01*
X7776463Y-9612884D01*
X7797291Y-9612884D01*
X7807706Y-9617963D01*
X7813040Y-9623297D01*
X7818120Y-9633712D01*
X7818120Y-9644126D01*
X7813040Y-9654539D01*
X7802625Y-9670034D01*
X7750556Y-9721850D01*
X7823200Y-9721850D01*
X8420100Y-9612884D02*
G01*
X8420100Y-9721850D01*
X8420100Y-9612884D02*
G01*
X8466836Y-9612884D01*
X8482329Y-9617963D01*
X8487663Y-9623297D01*
X8492743Y-9633712D01*
X8492743Y-9644126D01*
X8487663Y-9654539D01*
X8482329Y-9659620D01*
X8466836Y-9664700D01*
X8420100Y-9664700D02*
G01*
X8466836Y-9664700D01*
X8482329Y-9670034D01*
X8487663Y-9675113D01*
X8492743Y-9685528D01*
X8492743Y-9701276D01*
X8487663Y-9711689D01*
X8482329Y-9716770D01*
X8466836Y-9721850D01*
X8420100Y-9721850D01*
X8563609Y-9612884D02*
G01*
X8563609Y-9721850D01*
X8527034Y-9612884D02*
G01*
X8599931Y-9612884D01*
X8634222Y-9612884D02*
G01*
X8634222Y-9721850D01*
X8634222Y-9612884D02*
G01*
X8706865Y-9721850D01*
X8706865Y-9612884D02*
G01*
X8706865Y-9721850D01*
X8741156Y-9758426D02*
G01*
X8834627Y-9758426D01*
X8868918Y-9612884D02*
G01*
X8868918Y-9721850D01*
X8868918Y-9612884D02*
G01*
X8915654Y-9612884D01*
X8931402Y-9617963D01*
X8936481Y-9623297D01*
X8941815Y-9633712D01*
X8941815Y-9644126D01*
X8936481Y-9654539D01*
X8931402Y-9659620D01*
X8915654Y-9664700D01*
X8868918Y-9664700D01*
X8905240Y-9664700D02*
G01*
X8941815Y-9721850D01*
X8976106Y-9612884D02*
G01*
X8976106Y-9721850D01*
X8976106Y-9612884D02*
G01*
X9043670Y-9612884D01*
X8976106Y-9664700D02*
G01*
X9017508Y-9664700D01*
X8976106Y-9721850D02*
G01*
X9043670Y-9721850D01*
X9150604Y-9628378D02*
G01*
X9140190Y-9617963D01*
X9124695Y-9612884D01*
X9103868Y-9612884D01*
X9088120Y-9617963D01*
X9077959Y-9628378D01*
X9077959Y-9638792D01*
X9083040Y-9649205D01*
X9088120Y-9654539D01*
X9098534Y-9659620D01*
X9129775Y-9670034D01*
X9140190Y-9675113D01*
X9145270Y-9680447D01*
X9150604Y-9690862D01*
X9150604Y-9706355D01*
X9140190Y-9716770D01*
X9124695Y-9721850D01*
X9103868Y-9721850D01*
X9088120Y-9716770D01*
X9077959Y-9706355D01*
X9184893Y-9612884D02*
G01*
X9184893Y-9721850D01*
X9184893Y-9612884D02*
G01*
X9252458Y-9612884D01*
X9184893Y-9664700D02*
G01*
X9226550Y-9664700D01*
X9184893Y-9721850D02*
G01*
X9252458Y-9721850D01*
X9323070Y-9612884D02*
G01*
X9323070Y-9721850D01*
X9286747Y-9612884D02*
G01*
X9359391Y-9612884D01*
G36*
X3290925Y-3124200D02*
G01*
X3290925Y-3454400D01*
X3300476Y-3444646D01*
X3309467Y-3434384D01*
X3317849Y-3423564D01*
X3325571Y-3412286D01*
X3332581Y-3400551D01*
X3338880Y-3388410D01*
X3344418Y-3375914D01*
X3349244Y-3363112D01*
X3353257Y-3350056D01*
X3356508Y-3336798D01*
X3358946Y-3323336D01*
X3360572Y-3309772D01*
X3361385Y-3296158D01*
X3361385Y-3282442D01*
X3360572Y-3268827D01*
X3358946Y-3255264D01*
X3356508Y-3241802D01*
X3353257Y-3228543D01*
X3349244Y-3215487D01*
X3344418Y-3202686D01*
X3338880Y-3190189D01*
X3332581Y-3178048D01*
X3325571Y-3166313D01*
X3317849Y-3155035D01*
X3309467Y-3144215D01*
X3300476Y-3133953D01*
G37*
G36*
X7177125Y-2857500D02*
G01*
X7177125Y-3187700D01*
X7186675Y-3177946D01*
X7195667Y-3167684D01*
X7204049Y-3156864D01*
X7211771Y-3145586D01*
X7218781Y-3133852D01*
X7225080Y-3121710D01*
X7230618Y-3109214D01*
X7235444Y-3096412D01*
X7239457Y-3083356D01*
X7242708Y-3070098D01*
X7245146Y-3056636D01*
X7246772Y-3043072D01*
X7247585Y-3029458D01*
X7247585Y-3015742D01*
X7246772Y-3002127D01*
X7245146Y-2988564D01*
X7242708Y-2975102D01*
X7239457Y-2961843D01*
X7235444Y-2948787D01*
X7230618Y-2935986D01*
X7225080Y-2923489D01*
X7218781Y-2911348D01*
X7211771Y-2899613D01*
X7204049Y-2888335D01*
X7195667Y-2877515D01*
X7186675Y-2867253D01*
G37*
D12*
X2959887Y-3139312D02*
G01*
X3061487Y-3139312D01*
X3011500Y-3089300D02*
G01*
X3011500Y-3190900D01*
X6846087Y-2872612D02*
G01*
X6947687Y-2872612D01*
X6897700Y-2822600D02*
G01*
X6897700Y-2924200D01*
X4085739Y-3530000D02*
G01*
X4935738Y-3530000D01*
X4935738Y-4089999D01*
X3969740Y-3810000D02*
G01*
X4079740Y-3810000D01*
X4805738Y-3530000D02*
G01*
X4805738Y-4089999D01*
X4935738Y-3810000D02*
G01*
X5095737Y-3810000D01*
X4825738Y-3530000D02*
G01*
X4825738Y-4089999D01*
X4935738Y-4089999D02*
G01*
X4085739Y-4089999D01*
X4785738Y-3530000D02*
G01*
X4785738Y-4089999D01*
X4081739Y-4089999D02*
G01*
X4081739Y-3530000D01*
X11646199Y-1238600D02*
G01*
X11646199Y-1758599D01*
X11646199Y-1758599D02*
G01*
X11366200Y-1758599D01*
X11366200Y-1238600D02*
G01*
X11366200Y-1758599D01*
X11646199Y-1238600D02*
G01*
X11366200Y-1238600D01*
X11646199Y-1334526D02*
G01*
X11366200Y-1334526D01*
X11658899Y-3486500D02*
G01*
X11658899Y-4006499D01*
X11658899Y-4006499D02*
G01*
X11378900Y-4006499D01*
X11378900Y-3486500D02*
G01*
X11378900Y-4006499D01*
X11658899Y-3486500D02*
G01*
X11378900Y-3486500D01*
X11658899Y-3582426D02*
G01*
X11378900Y-3582426D01*
X1065019Y-1685112D02*
G01*
X1284980Y-1685112D01*
X1284980Y-1877131D01*
X1065019Y-1877131D01*
X1065098Y-2185024D02*
G01*
X1285097Y-2185024D01*
X1285097Y-2377000D01*
X1065098Y-2377000D01*
X1835099Y-1531998D02*
G01*
X1835099Y-2531998D01*
X1835099Y-2531998D02*
G01*
X1065100Y-2531998D01*
X1835099Y-1531998D02*
G01*
X1065100Y-1531998D01*
X1065100Y-1531998D02*
G01*
X1065100Y-2531998D01*
X1655155Y-1531998D02*
G01*
X1655155Y-2531998D01*
X1701800Y-2540000D02*
G01*
X1701800Y-2602798D01*
X1597738Y-2602798D01*
X1597738Y-2540000D01*
X15343380Y-1566087D02*
G01*
X15123419Y-1566087D01*
X15123419Y-1374068D01*
X15343380Y-1374068D01*
X15343301Y-1066175D02*
G01*
X15123302Y-1066175D01*
X15123302Y-874199D01*
X15343301Y-874199D01*
X14573300Y-1719201D02*
G01*
X14573300Y-719201D01*
X14573300Y-719201D02*
G01*
X15343299Y-719201D01*
X14573300Y-1719201D02*
G01*
X15343299Y-1719201D01*
X15343299Y-1719201D02*
G01*
X15343299Y-719201D01*
X14753244Y-1719201D02*
G01*
X14753244Y-719201D01*
X14706600Y-711200D02*
G01*
X14706600Y-648401D01*
X14810661Y-648401D01*
X14810661Y-711200D01*
X15343380Y-3902887D02*
G01*
X15123419Y-3902887D01*
X15123419Y-3710868D01*
X15343380Y-3710868D01*
X15343301Y-3402975D02*
G01*
X15123302Y-3402975D01*
X15123302Y-3210999D01*
X15343301Y-3210999D01*
X14573300Y-4056001D02*
G01*
X14573300Y-3056001D01*
X14573300Y-3056001D02*
G01*
X15343299Y-3056001D01*
X14573300Y-4056001D02*
G01*
X15343299Y-4056001D01*
X15343299Y-4056001D02*
G01*
X15343299Y-3056001D01*
X14753244Y-4056001D02*
G01*
X14753244Y-3056001D01*
X14706600Y-3048000D02*
G01*
X14706600Y-2985201D01*
X14810661Y-2985201D01*
X14810661Y-3048000D01*
X4775200Y-4595398D02*
G01*
X4775200Y-4345398D01*
X5054196Y-4345398D02*
G01*
X1194203Y-4345398D01*
X5054196Y-4595398D02*
G01*
X5054196Y-4345398D01*
X1194203Y-4595398D02*
G01*
X5054196Y-4595398D01*
X1194203Y-4345398D02*
G01*
X1194203Y-4595398D01*
X4775200Y-7097298D02*
G01*
X4775200Y-6847298D01*
X5054196Y-6847298D02*
G01*
X1194203Y-6847298D01*
X5054196Y-7097298D02*
G01*
X5054196Y-6847298D01*
X1194203Y-7097298D02*
G01*
X5054196Y-7097298D01*
X1194203Y-6847298D02*
G01*
X1194203Y-7097298D01*
X13754100Y-9167398D02*
G01*
X13754100Y-8917401D01*
X14033098Y-8917401D02*
G01*
X13221101Y-8917401D01*
X14033098Y-9167398D02*
G01*
X14033098Y-8917401D01*
X13221101Y-9167398D02*
G01*
X14033098Y-9167398D01*
X13221101Y-8917401D02*
G01*
X13221101Y-9167398D01*
X4985811Y-9535299D02*
G01*
X5013037Y-9535299D01*
X5223162Y-9535299D02*
G01*
X5250388Y-9535299D01*
X4007911Y-9535299D02*
G01*
X4035137Y-9535299D01*
X4245262Y-9535299D02*
G01*
X4272488Y-9535299D01*
X3042711Y-9535299D02*
G01*
X3069937Y-9535299D01*
X3280062Y-9535299D02*
G01*
X3307288Y-9535299D01*
X11203813Y-2585590D02*
G01*
X11203813Y-2189609D01*
X11216513Y-5392290D02*
G01*
X11216513Y-4996309D01*
X3898900Y-5638800D02*
G01*
X3873500Y-5638800D01*
X4406900Y-5638800D02*
G01*
X4432300Y-5638800D01*
X3898900Y-5638800D02*
G01*
X3898900Y-5562600D01*
X3898900Y-5715000D02*
G01*
X3898900Y-5638800D01*
X4406900Y-5715000D02*
G01*
X3898900Y-5715000D01*
X4406900Y-5638800D02*
G01*
X4406900Y-5715000D01*
X4406900Y-5562600D02*
G01*
X4406900Y-5638800D01*
X3898900Y-5562600D02*
G01*
X4406900Y-5562600D01*
X9740900Y-2032000D02*
G01*
X9715500Y-2032000D01*
X10248900Y-2032000D02*
G01*
X10274300Y-2032000D01*
X9740900Y-2032000D02*
G01*
X9740900Y-1955800D01*
X9740900Y-2108200D02*
G01*
X9740900Y-2032000D01*
X10248900Y-2108200D02*
G01*
X9740900Y-2108200D01*
X10248900Y-2032000D02*
G01*
X10248900Y-2108200D01*
X10248900Y-1955800D02*
G01*
X10248900Y-2032000D01*
X9740900Y-1955800D02*
G01*
X10248900Y-1955800D01*
X10375900Y-2514600D02*
G01*
X10375900Y-2489200D01*
X10375900Y-3022600D02*
G01*
X10375900Y-3048000D01*
X10375900Y-2514600D02*
G01*
X10452100Y-2514600D01*
X10299700Y-2514600D02*
G01*
X10375900Y-2514600D01*
X10299700Y-3022600D02*
G01*
X10299700Y-2514600D01*
X10375900Y-3022600D02*
G01*
X10299700Y-3022600D01*
X10452100Y-3022600D02*
G01*
X10375900Y-3022600D01*
X10452100Y-2514600D02*
G01*
X10452100Y-3022600D01*
X10375900Y-5118100D02*
G01*
X10375900Y-5092700D01*
X10375900Y-5626100D02*
G01*
X10375900Y-5651500D01*
X10375900Y-5118100D02*
G01*
X10452100Y-5118100D01*
X10299700Y-5118100D02*
G01*
X10375900Y-5118100D01*
X10299700Y-5626100D02*
G01*
X10299700Y-5118100D01*
X10375900Y-5626100D02*
G01*
X10299700Y-5626100D01*
X10452100Y-5626100D02*
G01*
X10375900Y-5626100D01*
X10452100Y-5118100D02*
G01*
X10452100Y-5626100D01*
X9740900Y-4635500D02*
G01*
X9715500Y-4635500D01*
X10248900Y-4635500D02*
G01*
X10274300Y-4635500D01*
X9740900Y-4635500D02*
G01*
X9740900Y-4559300D01*
X9740900Y-4711700D02*
G01*
X9740900Y-4635500D01*
X10248900Y-4711700D02*
G01*
X9740900Y-4711700D01*
X10248900Y-4635500D02*
G01*
X10248900Y-4711700D01*
X10248900Y-4559300D02*
G01*
X10248900Y-4635500D01*
X9740900Y-4559300D02*
G01*
X10248900Y-4559300D01*
X9779000Y-7861300D02*
G01*
X9753600Y-7861300D01*
X10287000Y-7861300D02*
G01*
X10312400Y-7861300D01*
X9779000Y-7861300D02*
G01*
X9779000Y-7785100D01*
X9779000Y-7937500D02*
G01*
X9779000Y-7861300D01*
X10287000Y-7937500D02*
G01*
X9779000Y-7937500D01*
X10287000Y-7861300D02*
G01*
X10287000Y-7937500D01*
X10287000Y-7785100D02*
G01*
X10287000Y-7861300D01*
X9779000Y-7785100D02*
G01*
X10287000Y-7785100D01*
X5118100Y-8077200D02*
G01*
X5118100Y-8051800D01*
X5118100Y-8585200D02*
G01*
X5118100Y-8610600D01*
X5118100Y-8077200D02*
G01*
X5194300Y-8077200D01*
X5041900Y-8077200D02*
G01*
X5118100Y-8077200D01*
X5041900Y-8585200D02*
G01*
X5041900Y-8077200D01*
X5118100Y-8585200D02*
G01*
X5041900Y-8585200D01*
X5194300Y-8585200D02*
G01*
X5118100Y-8585200D01*
X5194300Y-8077200D02*
G01*
X5194300Y-8585200D01*
X4140200Y-8077200D02*
G01*
X4140200Y-8051800D01*
X4140200Y-8585200D02*
G01*
X4140200Y-8610600D01*
X4140200Y-8077200D02*
G01*
X4216400Y-8077200D01*
X4064000Y-8077200D02*
G01*
X4140200Y-8077200D01*
X4064000Y-8585200D02*
G01*
X4064000Y-8077200D01*
X4140200Y-8585200D02*
G01*
X4064000Y-8585200D01*
X4216400Y-8585200D02*
G01*
X4140200Y-8585200D01*
X4216400Y-8077200D02*
G01*
X4216400Y-8585200D01*
X3175000Y-8077200D02*
G01*
X3175000Y-8051800D01*
X3175000Y-8585200D02*
G01*
X3175000Y-8610600D01*
X3175000Y-8077200D02*
G01*
X3251200Y-8077200D01*
X3098800Y-8077200D02*
G01*
X3175000Y-8077200D01*
X3098800Y-8585200D02*
G01*
X3098800Y-8077200D01*
X3175000Y-8585200D02*
G01*
X3098800Y-8585200D01*
X3251200Y-8585200D02*
G01*
X3175000Y-8585200D01*
X3251200Y-8077200D02*
G01*
X3251200Y-8585200D01*
D13*
X12919384Y-990000D02*
G01*
X13414298Y-990000D01*
X12214301Y-990000D02*
G01*
X12709174Y-990000D01*
X12214303Y-990000D02*
G01*
X12214301Y-888212D01*
X13414296Y-990000D02*
G01*
X13414298Y-888212D01*
X12388595Y-1936038D02*
G01*
X12783058Y-1936038D01*
X12884404Y-1834210D02*
G01*
X13045186Y-1999259D01*
X12994299Y-516026D02*
G01*
X13187019Y-516026D01*
X13187019Y-1379626D01*
X12887020Y-1379626D01*
X12884604Y-1382039D01*
X12884604Y-1783638D01*
X12884604Y-1834438D01*
D12*
X12034301Y-2269309D02*
G01*
X12034301Y-349298D01*
X13594303Y-2269296D02*
G01*
X13594303Y-349285D01*
X12034299Y-2269299D02*
G01*
X13594300Y-2269299D01*
X13238988Y-1929129D02*
G01*
X13016229Y-1929129D01*
X13594303Y-349285D02*
G01*
X12843769Y-349285D01*
X12784830Y-349285D02*
G01*
X12034301Y-349285D01*
X12914299Y-841705D02*
G01*
X12914299Y-1141704D01*
X12714300Y-1141704D01*
X12714300Y-841705D01*
X12914299Y-841705D01*
D13*
X12919384Y-3364900D02*
G01*
X13414298Y-3364900D01*
X12214301Y-3364900D02*
G01*
X12709174Y-3364900D01*
X12214303Y-3364900D02*
G01*
X12214301Y-3263112D01*
X13414296Y-3364900D02*
G01*
X13414298Y-3263112D01*
X12388595Y-4310938D02*
G01*
X12783058Y-4310938D01*
X12884404Y-4209110D02*
G01*
X13045186Y-4374159D01*
X12994299Y-2890926D02*
G01*
X13187019Y-2890926D01*
X13187019Y-3754526D01*
X12887020Y-3754526D01*
X12884604Y-3756939D01*
X12884604Y-4158538D01*
X12884604Y-4209338D01*
D12*
X12034301Y-4644209D02*
G01*
X12034301Y-2724198D01*
X13594303Y-4644196D02*
G01*
X13594303Y-2724185D01*
X12034299Y-4644199D02*
G01*
X13594300Y-4644199D01*
X13238988Y-4304029D02*
G01*
X13016229Y-4304029D01*
X13594303Y-2724185D02*
G01*
X12843769Y-2724185D01*
X12784830Y-2724185D02*
G01*
X12034301Y-2724185D01*
X12914299Y-3216605D02*
G01*
X12914299Y-3516604D01*
X12714300Y-3516604D01*
X12714300Y-3216605D01*
X12914299Y-3216605D01*
D14*
X3741420Y-1306969D02*
G01*
X3741420Y-1353896D01*
X2710179Y-1306969D02*
G01*
X2710179Y-1353896D01*
D11*
X2710179Y-1353896D02*
G01*
X3741420Y-1353896D01*
X2710179Y-1049091D02*
G01*
X2710179Y-1306969D01*
X3741420Y-1049091D02*
G01*
X3741420Y-1306969D01*
D12*
X10243484Y-9249011D02*
G01*
X11443634Y-9249011D01*
X10243484Y-9249011D02*
G01*
X10245798Y-9249011D01*
X10245798Y-8643500D01*
X11443634Y-8643500D01*
X11443634Y-9249011D01*
D10*
X10655800Y-9089499D02*
G01*
X10528800Y-9089499D01*
X11036800Y-9089499D02*
G01*
X11036800Y-9249011D01*
X11163800Y-9249011D02*
G01*
X11163800Y-9089499D01*
X10782800Y-9089499D02*
G01*
X10782800Y-9249011D01*
X10909800Y-9249011D02*
G01*
X10909800Y-9089499D01*
X10528800Y-9089499D02*
G01*
X10528800Y-9249011D01*
X10655800Y-9249011D02*
G01*
X10655800Y-9089499D01*
X11163800Y-9089499D02*
G01*
X11036800Y-9089499D01*
X10909800Y-9089499D02*
G01*
X10782800Y-9089499D01*
D12*
X6185788Y-8907500D02*
G01*
X6666611Y-8907500D01*
X6726199Y-9092808D02*
G01*
X6726199Y-9322191D01*
X6666611Y-9507499D02*
G01*
X6185788Y-9507499D01*
X6126200Y-9322191D02*
G01*
X6126200Y-9092808D01*
X7366888Y-8907500D02*
G01*
X7847711Y-8907500D01*
X7907299Y-9092808D02*
G01*
X7907299Y-9322191D01*
X7847711Y-9507499D02*
G01*
X7366888Y-9507499D01*
X7307300Y-9322191D02*
G01*
X7307300Y-9092808D01*
X8624188Y-8907500D02*
G01*
X9105011Y-8907500D01*
X9164599Y-9092808D02*
G01*
X9164599Y-9322191D01*
X9105011Y-9507499D02*
G01*
X8624188Y-9507499D01*
X8564600Y-9322191D02*
G01*
X8564600Y-9092808D01*
G75*
G01*
X5022078Y-9209860D02*
G03*
X4985812Y-9535300I96022J-175441D01*
G75*
G01*
X5250388Y-9535300D02*
G03*
X5214122Y-9209860I-132288J149999D01*
G75*
G01*
X4044178Y-9209860D02*
G03*
X4007912Y-9535300I96022J-175441D01*
G75*
G01*
X4272488Y-9535300D02*
G03*
X4236222Y-9209860I-132288J149999D01*
G75*
G01*
X3078978Y-9209860D02*
G03*
X3042712Y-9535300I96022J-175441D01*
G75*
G01*
X3307288Y-9535300D02*
G03*
X3271022Y-9209860I-132288J149999D01*
G75*
G01*
X11203686Y-2585720D02*
G03*
X11203686Y-2189480I149840J198120D01*
G75*
G01*
X11216386Y-5392420D02*
G03*
X11216386Y-4996180I149840J198120D01*
G75*
G01
X1790725Y-8851900D02*
G03X1790725Y-8851900I-127000J0D01*
G75*
G01
X2263724Y-8851900D02*
G03X2263724Y-8851900I-599999J0D01*
D13*
G75*
G01
X3361512Y-3289300D02*
G03X3361512Y-3289300I-250012J0D01*
G75*
G01
X7247712Y-3022600D02*
G03X7247712Y-3022600I-250012J0D01*
D12*
G75*
G01
X12184304Y-459207D02*
G03X12184304Y-459207I-50013J0D01*
G75*
G01
X12184304Y-2834107D02*
G03X12184304Y-2834107I-50013J0D01*
G75*
G01
X4857699Y-2527300D02*
G03X4857699Y-2527300I-399999J0D01*
G75*
G01
X6606210Y-9207500D02*
G03X6606210Y-9207500I-180010J0D01*
G75*
G01
X6650939Y-9027516D02*
G03X6650939Y-9027516I-44729J0D01*
G75*
G01
X6290920Y-9027490D02*
G03X6290920Y-9027490I-44729J0D01*
G75*
G01
X6290920Y-9387510D02*
G03X6290920Y-9387510I-44729J0D01*
G75*
G01
X6650939Y-9387510D02*
G03X6650939Y-9387510I-44729J0D01*
G75*
G01
X7787310Y-9207500D02*
G03X7787310Y-9207500I-180010J0D01*
G75*
G01
X7832039Y-9027516D02*
G03X7832039Y-9027516I-44729J0D01*
G75*
G01
X7472020Y-9027490D02*
G03X7472020Y-9027490I-44729J0D01*
G75*
G01
X7472020Y-9387510D02*
G03X7472020Y-9387510I-44729J0D01*
G75*
G01
X7832039Y-9387510D02*
G03X7832039Y-9387510I-44729J0D01*
G75*
G01
X9044610Y-9207500D02*
G03X9044610Y-9207500I-180010J0D01*
G75*
G01
X9089339Y-9027516D02*
G03X9089339Y-9027516I-44729J0D01*
G75*
G01
X8729320Y-9027490D02*
G03X8729320Y-9027490I-44729J0D01*
G75*
G01
X8729320Y-9387510D02*
G03X8729320Y-9387510I-44729J0D01*
G75*
G01
X9089339Y-9387510D02*
G03X9089339Y-9387510I-44729J0D01*
M02*
