G04 Layer: TopLayer*
G04 EasyEDA v6.5.54, 2026-06-08 19:45:44*
G04 82e182372f40471f8d9036cec7ceee87,5110d384c6e14df295734490401b8a32,10*
G04 Gerber Generator version 0.2*
G04 Scale: 100 percent, Rotated: No, Reflected: No *
G04 Dimensions in millimeters *
G04 leading zeros omitted , absolute positions ,4 integer and 5 decimal *
%FSLAX45Y45*%
%MOMM*%

%AMMACRO1*21,1,$1,$2,0,0,$3*%
%ADD10C,0.8000*%
%ADD11C,0.3000*%
%ADD12MACRO1,10.5664X7.5208X0.0000*%
%ADD13R,1.0200X3.5000*%
%ADD14C,1.8000*%
%ADD15C,0.0166*%
%ADD16C,1.3000*%
%ADD17R,3.0000X3.0000*%
%ADD18C,3.0000*%
%ADD19C,2.2000*%
%ADD20C,1.6000*%
%ADD21R,1.6000X1.5748*%
%ADD22C,1.5748*%
%ADD23R,1.5748X1.5748*%
%ADD24C,1.6510*%
%ADD25O,1.599997X0.899998*%
%ADD26R,1.6000X0.9000*%
%ADD27C,1.8796*%
%ADD28C,2.7940*%
%ADD29R,1.5000X1.5000*%
%ADD30C,1.5000*%
%ADD31C,1.4000*%

%LPD*%
D10*
X1435100Y-1782013D02*
G01*
X2781305Y-1782013D01*
X2833527Y-1729793D01*
X2885790Y-1729793D01*
X4607707Y-2527300D02*
G01*
X4178300Y-2095500D01*
X3505200Y-2095500D01*
X3395802Y-1986102D01*
X3395802Y-1729790D01*
X4307718Y-2527300D02*
G01*
X3187700Y-2527300D01*
X3055797Y-2395397D01*
X3055797Y-1729790D01*
X4607813Y-2527300D02*
G01*
X3581400Y-3556000D01*
X3416300Y-3556000D01*
X3098800Y-3873500D01*
X1943100Y-3873500D01*
X1346200Y-4470400D01*
X4607819Y-2527300D02*
G01*
X5359400Y-2527300D01*
X6045200Y-1866900D01*
X8077200Y-1866900D01*
X9234906Y-709193D01*
X12201601Y-709193D01*
X4607707Y-2527300D02*
G01*
X6402400Y-2527300D01*
X6897700Y-3022600D01*
X1435100Y-1782013D02*
G01*
X1504213Y-1782013D01*
X3011500Y-3289300D01*
X12214301Y-3084093D02*
G01*
X12614300Y-3084093D01*
X12814300Y-2884093D01*
D11*
X10375900Y-4635500D02*
G01*
X10375900Y-4991100D01*
X10375900Y-4991100D02*
G01*
X10579100Y-5194300D01*
X11366500Y-5194300D01*
X10375900Y-2032000D02*
G01*
X10375900Y-2387600D01*
X10375900Y-2387600D02*
G01*
X11290300Y-2387600D01*
D10*
X13401547Y-1929206D02*
G01*
X14449806Y-1929206D01*
X14909800Y-1469212D01*
X13414247Y-4304106D02*
G01*
X14490700Y-4304106D01*
X14490700Y-4305300D01*
X14973300Y-3806012D01*
D11*
X9613900Y-4635500D02*
G01*
X7886700Y-4635500D01*
X7607300Y-4914900D01*
X3060700Y-4914900D01*
X2616200Y-4470400D01*
X13627100Y-9042400D02*
G01*
X10820400Y-6235700D01*
X6375400Y-6235700D01*
X5257800Y-5118100D01*
X2997200Y-5118100D01*
X2997200Y-5118100D01*
X2362200Y-4470400D01*
X3175000Y-9245600D02*
G01*
X3175000Y-8712200D01*
X4140200Y-9245600D02*
G01*
X4140200Y-8724900D01*
X5118100Y-9258300D02*
G01*
X5118100Y-8712200D01*
X3175000Y-7950200D02*
G01*
X3175000Y-7708900D01*
X3911600Y-6972300D01*
X4140200Y-7962900D02*
G01*
X4140200Y-7505700D01*
X4673600Y-6972300D01*
X5118100Y-7950200D02*
G01*
X5118100Y-7493000D01*
X4927600Y-7302500D01*
X4927600Y-6972300D01*
X2043709Y-8851900D02*
G01*
X2043709Y-8586190D01*
X3657600Y-6972300D01*
X6101334Y-8982455D02*
G01*
X6101334Y-7625334D01*
X4927600Y-6451600D01*
X3136900Y-6451600D01*
X1854200Y-5168900D01*
X1854200Y-4470400D01*
X7282306Y-8982506D02*
G01*
X7282306Y-8399906D01*
X5092700Y-6210300D01*
X3175000Y-6210300D01*
X2120900Y-5156200D01*
X2120900Y-4483100D01*
X2108200Y-4470400D01*
D10*
X4607813Y-2527300D02*
G01*
X4607813Y-2537713D01*
X6045200Y-3975100D01*
X10922000Y-3975100D01*
X12509500Y-5562600D01*
X12509500Y-7150100D01*
X13881100Y-8521700D01*
X13881100Y-9042400D01*
X4607813Y-2527300D02*
G01*
X5369306Y-2526537D01*
X6528308Y-3683000D01*
X10528300Y-3683000D01*
X11176000Y-3035300D01*
X12165584Y-3035300D01*
X12214352Y-3084068D01*
D11*
X11518900Y-4181500D02*
G01*
X12091746Y-4181500D01*
X12214352Y-4304106D01*
X11493500Y-1933600D02*
G01*
X11497896Y-1929203D01*
X12201649Y-1929203D01*
X10718800Y-8953500D02*
G01*
X10718800Y-8166100D01*
X10414000Y-7861300D01*
X10414000Y-7861300D02*
G01*
X10414000Y-7264400D01*
X9804400Y-6654800D01*
X5905500Y-6654800D01*
D10*
X3225800Y-1729790D02*
G01*
X3225800Y-2209800D01*
X3565804Y-1729790D02*
G01*
X3565804Y-997813D01*
X3225800Y-657809D01*
X3225800Y-1729790D02*
G01*
X3225800Y-657809D01*
X11518900Y-3311499D02*
G01*
X11986895Y-3311499D01*
X12214301Y-3084093D01*
X11493500Y-1063599D02*
G01*
X11847189Y-1063599D01*
X12201598Y-709190D01*
D12*
G01*
X3225800Y-657810D03*
D13*
G01*
X3565804Y-1729790D03*
G01*
X3395802Y-1729790D03*
G01*
X3225800Y-1729790D03*
G01*
X3055797Y-1729790D03*
G01*
X2885795Y-1729790D03*
D14*
G01*
X1283715Y-8851900D03*
G01*
X2043709Y-8851900D03*
D16*
G01*
X3011500Y-3289300D03*
G01*
X3211499Y-3289300D03*
G01*
X6897700Y-3022600D03*
G01*
X7097699Y-3022600D03*
D17*
G01*
X3746500Y-3810000D03*
D18*
G01*
X5270500Y-3810000D03*
D14*
G01*
X11506200Y-1063599D03*
G01*
X11506200Y-1933600D03*
G01*
X11518900Y-3311499D03*
G01*
X11518900Y-4181500D03*
D19*
G01*
X1435100Y-1782013D03*
G01*
X1435100Y-2282012D03*
G01*
X14973300Y-1469212D03*
G01*
X14973300Y-969213D03*
G01*
X14973300Y-3806012D03*
G01*
X14973300Y-3306013D03*
D20*
G01*
X1346200Y-4470400D03*
G01*
X1600200Y-4470400D03*
G01*
X1854200Y-4470400D03*
G01*
X2108200Y-4470400D03*
G01*
X2362200Y-4470400D03*
G01*
X2616200Y-4470400D03*
G01*
X2870200Y-4470400D03*
G01*
X3124200Y-4470400D03*
G01*
X3378200Y-4470400D03*
G01*
X3632200Y-4470400D03*
G01*
X3886200Y-4470400D03*
G01*
X4140200Y-4470400D03*
G01*
X4394200Y-4470400D03*
G01*
X4648200Y-4470400D03*
D21*
G01*
X4902200Y-4470400D03*
D20*
G01*
X1346200Y-6972300D03*
G01*
X1600200Y-6972300D03*
G01*
X1854200Y-6972300D03*
G01*
X2108200Y-6972300D03*
G01*
X2362200Y-6972300D03*
G01*
X2616200Y-6972300D03*
G01*
X2870200Y-6972300D03*
G01*
X3124200Y-6972300D03*
G01*
X3378200Y-6972300D03*
G01*
X3632200Y-6972300D03*
G01*
X3886200Y-6972300D03*
G01*
X4140200Y-6972300D03*
G01*
X4394200Y-6972300D03*
G01*
X4648200Y-6972300D03*
D21*
G01*
X4902200Y-6972300D03*
D22*
G01*
X13373100Y-9042400D03*
G01*
X13627100Y-9042400D03*
D23*
G01*
X13881100Y-9042400D03*
D24*
G01*
X5118100Y-9258300D03*
G01*
X5118100Y-9512300D03*
G01*
X4140200Y-9258300D03*
G01*
X4140200Y-9512300D03*
G01*
X3175000Y-9258300D03*
G01*
X3175000Y-9512300D03*
D25*
G01*
X11353800Y-2514600D03*
G01*
X11353800Y-2387600D03*
D26*
G01*
X11353800Y-2260600D03*
D25*
G01*
X11366500Y-5321300D03*
G01*
X11366500Y-5194300D03*
D26*
G01*
X11366500Y-5067300D03*
D27*
G01*
X3771900Y-5638800D03*
G01*
X4533900Y-5638800D03*
G01*
X9613900Y-2032000D03*
G01*
X10375900Y-2032000D03*
G01*
X10375900Y-2387600D03*
G01*
X10375900Y-3149600D03*
G01*
X10375900Y-4991100D03*
G01*
X10375900Y-5753100D03*
G01*
X9613900Y-4635500D03*
G01*
X10375900Y-4635500D03*
G01*
X9652000Y-7861300D03*
G01*
X10414000Y-7861300D03*
G01*
X5118100Y-7950200D03*
G01*
X5118100Y-8712200D03*
G01*
X4140200Y-7950200D03*
G01*
X4140200Y-8712200D03*
G01*
X3175000Y-7950200D03*
G01*
X3175000Y-8712200D03*
D28*
G01*
X12214352Y-1929206D03*
G01*
X12814300Y-509193D03*
G01*
X13414298Y-709193D03*
G01*
X12214301Y-709193D03*
G01*
X13414247Y-1929206D03*
G01*
X12214352Y-4304106D03*
G01*
X12814300Y-2884093D03*
G01*
X13414298Y-3084093D03*
G01*
X12214301Y-3084093D03*
G01*
X13414247Y-4304106D03*
D20*
G01*
X4307713Y-2527300D03*
G01*
X4607712Y-2527300D03*
D29*
G01*
X10464800Y-8953500D03*
D30*
G01*
X10718800Y-8953500D03*
G01*
X10972800Y-8953500D03*
G01*
X11226800Y-8953500D03*
D14*
G01*
X6101206Y-8982506D03*
G01*
X6751193Y-8982506D03*
G01*
X6101206Y-9432493D03*
G01*
X6751193Y-9432493D03*
G01*
X7282306Y-8982506D03*
G01*
X7932293Y-8982506D03*
G01*
X7282306Y-9432493D03*
G01*
X7932293Y-9432493D03*
G01*
X8539606Y-8982506D03*
G01*
X9189593Y-8982506D03*
G01*
X8539606Y-9432493D03*
G01*
X9189593Y-9432493D03*
D10*
G01*
X5905500Y-6654800D03*
D31*
G01*
X3225800Y-2209800D03*
M02*
