G04 Layer: BottomSolderMaskLayer*
G04 EasyEDA v6.5.54, 2026-06-08 19:45:44*
G04 82e182372f40471f8d9036cec7ceee87,5110d384c6e14df295734490401b8a32,10*
G04 Gerber Generator version 0.2*
G04 Scale: 100 percent, Rotated: No, Reflected: No *
G04 Dimensions in millimeters *
G04 leading zeros omitted , absolute positions ,4 integer and 5 decimal *
%FSLAX45Y45*%
%MOMM*%

%AMMACRO1*4,1,8,-1.5211,-1.5508,-1.5508,-1.521,-1.5508,1.5211,-1.5211,1.5508,1.521,1.5508,1.5508,1.5211,1.5508,-1.521,1.521,-1.5508,-1.5211,-1.5508,0*%
%AMMACRO2*4,1,8,-0.8211,-0.8382,-0.8508,-0.8084,-0.8508,0.8085,-0.8211,0.8382,0.821,0.8382,0.8508,0.8085,0.8508,-0.8084,0.821,-0.8382,-0.8211,-0.8382,0*%
%AMMACRO3*4,1,8,-0.8085,-0.8382,-0.8382,-0.8084,-0.8382,0.8085,-0.8085,0.8382,0.8084,0.8382,0.8382,0.8085,0.8382,-0.8084,0.8084,-0.8382,-0.8085,-0.8382,0*%
%AMMACRO4*4,1,8,-0.8211,-0.5008,-0.8508,-0.471,-0.8508,0.4711,-0.8211,0.5008,0.821,0.5008,0.8508,0.4711,0.8508,-0.471,0.821,-0.5008,-0.8211,-0.5008,0*%
%AMMACRO5*4,1,8,-0.7711,-0.8008,-0.8008,-0.771,-0.8008,0.7711,-0.7711,0.8008,0.771,0.8008,0.8008,0.7711,0.8008,-0.771,0.771,-0.8008,-0.7711,-0.8008,0*%
%ADD10C,1.9016*%
%ADD11C,1.4016*%
%ADD12MACRO1*%
%ADD13C,3.1016*%
%ADD14C,2.3000*%
%ADD15C,0.0173*%
%ADD16C,1.7016*%
%ADD17MACRO2*%
%ADD18C,1.6764*%
%ADD19MACRO3*%
%ADD20C,1.7526*%
%ADD21O,1.701597X1.001598*%
%ADD22MACRO4*%
%ADD23C,1.9812*%
%ADD24C,2.8956*%
%ADD25MACRO5*%
%ADD26C,1.6016*%

%LPD*%
D10*
G01*
X1283715Y-8851900D03*
G01*
X2043709Y-8851900D03*
D11*
G01*
X3011500Y-3289300D03*
G01*
X3211499Y-3289300D03*
G01*
X6897700Y-3022600D03*
G01*
X7097699Y-3022600D03*
D12*
G01*
X3746500Y-3810000D03*
D13*
G01*
X5270500Y-3810000D03*
D10*
G01*
X11506200Y-1063599D03*
G01*
X11506200Y-1933600D03*
G01*
X11518900Y-3311499D03*
G01*
X11518900Y-4181500D03*
D14*
G01*
X1435100Y-1782013D03*
G01*
X1435100Y-2282012D03*
G01*
X14973300Y-1469212D03*
G01*
X14973300Y-969213D03*
G01*
X14973300Y-3806012D03*
G01*
X14973300Y-3306013D03*
D16*
G01*
X1346200Y-4470400D03*
G01*
X1600200Y-4470400D03*
G01*
X1854200Y-4470400D03*
G01*
X2108200Y-4470400D03*
G01*
X2362200Y-4470400D03*
G01*
X2616200Y-4470400D03*
G01*
X2870200Y-4470400D03*
G01*
X3124200Y-4470400D03*
G01*
X3378200Y-4470400D03*
G01*
X3632200Y-4470400D03*
G01*
X3886200Y-4470400D03*
G01*
X4140200Y-4470400D03*
G01*
X4394200Y-4470400D03*
G01*
X4648200Y-4470400D03*
D17*
G01*
X4902200Y-4470400D03*
D16*
G01*
X1346200Y-6972300D03*
G01*
X1600200Y-6972300D03*
G01*
X1854200Y-6972300D03*
G01*
X2108200Y-6972300D03*
G01*
X2362200Y-6972300D03*
G01*
X2616200Y-6972300D03*
G01*
X2870200Y-6972300D03*
G01*
X3124200Y-6972300D03*
G01*
X3378200Y-6972300D03*
G01*
X3632200Y-6972300D03*
G01*
X3886200Y-6972300D03*
G01*
X4140200Y-6972300D03*
G01*
X4394200Y-6972300D03*
G01*
X4648200Y-6972300D03*
D17*
G01*
X4902200Y-6972300D03*
D18*
G01*
X13373100Y-9042400D03*
G01*
X13627100Y-9042400D03*
D19*
G01*
X13881100Y-9042400D03*
D20*
G01*
X5118100Y-9258300D03*
G01*
X5118100Y-9512300D03*
G01*
X4140200Y-9258300D03*
G01*
X4140200Y-9512300D03*
G01*
X3175000Y-9258300D03*
G01*
X3175000Y-9512300D03*
D21*
G01*
X11353800Y-2514600D03*
G01*
X11353800Y-2387600D03*
D22*
G01*
X11353800Y-2260601D03*
D21*
G01*
X11366500Y-5321300D03*
G01*
X11366500Y-5194300D03*
D22*
G01*
X11366500Y-5067301D03*
D23*
G01*
X3771900Y-5638800D03*
G01*
X4533900Y-5638800D03*
G01*
X9613900Y-2032000D03*
G01*
X10375900Y-2032000D03*
G01*
X10375900Y-2387600D03*
G01*
X10375900Y-3149600D03*
G01*
X10375900Y-4991100D03*
G01*
X10375900Y-5753100D03*
G01*
X9613900Y-4635500D03*
G01*
X10375900Y-4635500D03*
G01*
X9652000Y-7861300D03*
G01*
X10414000Y-7861300D03*
G01*
X5118100Y-7950200D03*
G01*
X5118100Y-8712200D03*
G01*
X4140200Y-7950200D03*
G01*
X4140200Y-8712200D03*
G01*
X3175000Y-7950200D03*
G01*
X3175000Y-8712200D03*
D24*
G01*
X12214352Y-1929206D03*
G01*
X12814300Y-509193D03*
G01*
X13414298Y-709193D03*
G01*
X12214301Y-709193D03*
G01*
X13414247Y-1929206D03*
G01*
X12214352Y-4304106D03*
G01*
X12814300Y-2884093D03*
G01*
X13414298Y-3084093D03*
G01*
X12214301Y-3084093D03*
G01*
X13414247Y-4304106D03*
D16*
G01*
X4307713Y-2527300D03*
G01*
X4607712Y-2527300D03*
D25*
G01*
X10464800Y-8953500D03*
D26*
G01*
X10718800Y-8953500D03*
G01*
X10972800Y-8953500D03*
G01*
X11226800Y-8953500D03*
D10*
G01*
X6101206Y-8982506D03*
G01*
X6751193Y-8982506D03*
G01*
X6101206Y-9432493D03*
G01*
X6751193Y-9432493D03*
G01*
X7282306Y-8982506D03*
G01*
X7932293Y-8982506D03*
G01*
X7282306Y-9432493D03*
G01*
X7932293Y-9432493D03*
G01*
X8539606Y-8982506D03*
G01*
X9189593Y-8982506D03*
G01*
X8539606Y-9432493D03*
G01*
X9189593Y-9432493D03*
M02*
